<svg width="1161" height="758" xmlns="http://www.w3.org/2000/svg" xmlns:xlink="http://www.w3.org/1999/xlink" xml:space="preserve" overflow="hidden"><defs><clipPath id="clip0"><rect x="1240" y="9" width="1161" height="758"/></clipPath><clipPath id="clip1"><rect x="1240" y="9" width="1159" height="756"/></clipPath><clipPath id="clip2"><rect x="1240" y="9" width="1159" height="756"/></clipPath><clipPath id="clip3"><rect x="1240" y="9" width="1159" height="756"/></clipPath><clipPath id="clip4"><rect x="1240" y="9" width="1159" height="756"/></clipPath><clipPath id="clip5"><rect x="1240" y="9" width="1159" height="756"/></clipPath><clipPath id="clip6"><rect x="1240" y="9" width="1159" height="756"/></clipPath><clipPath id="clip7"><rect x="1240" y="9" width="1159" height="756"/></clipPath><clipPath id="clip8"><rect x="1240" y="9" width="1159" height="756"/></clipPath><clipPath id="clip9"><rect x="1240" y="9" width="1159" height="756"/></clipPath><clipPath id="clip10"><rect x="1240" y="9" width="1159" height="756"/></clipPath><clipPath id="clip11"><rect x="1240" y="9" width="1159" height="756"/></clipPath><clipPath id="clip12"><rect x="1240" y="9" width="1159" height="756"/></clipPath><clipPath id="clip13"><rect x="1240" y="9" width="1159" height="756"/></clipPath><clipPath id="clip14"><rect x="1240" y="9" width="1159" height="756"/></clipPath><clipPath id="clip15"><rect x="1240" y="9" width="1159" height="756"/></clipPath><clipPath id="clip16"><rect x="1240" y="9" width="1159" height="756"/></clipPath><clipPath id="clip17"><rect x="1240" y="9" width="1159" height="756"/></clipPath><clipPath id="clip18"><rect x="1240" y="9" width="1159" height="756"/></clipPath><clipPath id="clip19"><rect x="1240" y="9" width="1159" height="756"/></clipPath><clipPath id="clip20"><rect x="1240" y="9" width="1159" height="756"/></clipPath><clipPath id="clip21"><rect x="1240" y="9" width="1159" height="756"/></clipPath><clipPath id="clip22"><rect x="1240" y="9" width="1159" height="756"/></clipPath><clipPath id="clip23"><rect x="1240" y="9" width="1159" height="756"/></clipPath><clipPath id="clip24"><rect x="1240" y="9" width="1159" height="756"/></clipPath><clipPath id="clip25"><rect x="1240" y="9" width="1159" height="756"/></clipPath><clipPath id="clip26"><rect x="1240" y="9" width="1159" height="756"/></clipPath><clipPath id="clip27"><rect x="1240" y="9" width="1159" height="756"/></clipPath><clipPath id="clip28"><rect x="1240" y="9" width="1159" height="756"/></clipPath><clipPath id="clip29"><rect x="1240" y="9" width="1159" height="756"/></clipPath><clipPath id="clip30"><rect x="1240" y="9" width="1159" height="756"/></clipPath><clipPath id="clip31"><rect x="1240" y="9" width="1159" height="756"/></clipPath><clipPath id="clip32"><rect x="1240" y="9" width="1159" height="756"/></clipPath><clipPath id="clip33"><rect x="1240" y="9" width="1159" height="756"/></clipPath></defs><g clip-path="url(#clip0)" transform="translate(-1240 -9)"><rect x="1241" y="9.99997" width="1158" height="755" fill="#FFFFFF"/><g clip-path="url(#clip1)"><path d="M1371.5 491.516 2348.5 491.516M1371.5 429.514 2348.5 429.514M1371.5 366.512 2348.5 366.512M1371.5 304.51 2348.5 304.51M1371.5 242.508 2348.5 242.508M1371.5 179.5 2348.5 179.5" stroke="#D9D9D9" stroke-width="3.4375" stroke-linejoin="round" stroke-miterlimit="10" fill="none"/></g><g clip-path="url(#clip2)"><path d="M1371.5 554.5 2348.5 554.5" stroke="#D9D9D9" stroke-width="3.4375" stroke-linejoin="round" stroke-miterlimit="10" fill="none" fill-rule="evenodd"/></g><g clip-path="url(#clip3)"><path d="M1427.44 388.468C1427.44 394.543 1422.51 399.468 1416.44 399.468 1410.36 399.468 1405.44 394.543 1405.44 388.468 1405.44 382.393 1410.36 377.469 1416.44 377.469 1422.51 377.469 1427.44 382.393 1427.44 388.468Z" stroke="#4472C4" stroke-width="3.4375" stroke-linejoin="round" stroke-miterlimit="10" fill="#4472C4"/><path d="M1515.44 444.468C1515.44 450.543 1510.51 455.468 1504.44 455.468 1498.36 455.468 1493.44 450.543 1493.44 444.468 1493.44 438.393 1498.36 433.469 1504.44 433.469 1510.51 433.469 1515.44 438.393 1515.44 444.468Z" stroke="#4472C4" stroke-width="3.4375" stroke-linejoin="round" stroke-miterlimit="10" fill="#4472C4"/><path d="M1604.44 429.468C1604.44 435.543 1599.51 440.468 1593.44 440.468 1587.36 440.468 1582.44 435.543 1582.44 429.468 1582.44 423.393 1587.36 418.469 1593.44 418.469 1599.51 418.469 1604.44 423.393 1604.44 429.468Z" stroke="#4472C4" stroke-width="3.4375" stroke-linejoin="round" stroke-miterlimit="10" fill="#4472C4"/><path d="M1693.44 429.468C1693.44 435.543 1688.51 440.468 1682.44 440.468 1676.36 440.468 1671.44 435.543 1671.44 429.468 1671.44 423.393 1676.36 418.469 1682.44 418.469 1688.51 418.469 1693.44 423.393 1693.44 429.468Z" stroke="#4472C4" stroke-width="3.4375" stroke-linejoin="round" stroke-miterlimit="10" fill="#4472C4"/><path d="M1782.44 320.468C1782.44 326.543 1777.51 331.468 1771.44 331.468 1765.36 331.468 1760.44 326.543 1760.44 320.468 1760.44 314.393 1765.36 309.468 1771.44 309.468 1777.51 309.468 1782.44 314.393 1782.44 320.468Z" stroke="#4472C4" stroke-width="3.4375" stroke-linejoin="round" stroke-miterlimit="10" fill="#4472C4"/><path d="M1871.44 435.468C1871.44 441.543 1866.51 446.468 1860.44 446.468 1854.36 446.468 1849.44 441.543 1849.44 435.468 1849.44 429.393 1854.36 424.469 1860.44 424.469 1866.51 424.469 1871.44 429.393 1871.44 435.468Z" stroke="#4472C4" stroke-width="3.4375" stroke-linejoin="round" stroke-miterlimit="10" fill="#4472C4"/><path d="M1960.44 413.468C1960.44 419.543 1955.51 424.468 1949.44 424.468 1943.36 424.468 1938.44 419.543 1938.44 413.468 1938.44 407.393 1943.36 402.469 1949.44 402.469 1955.51 402.469 1960.44 407.393 1960.44 413.468Z" stroke="#4472C4" stroke-width="3.4375" stroke-linejoin="round" stroke-miterlimit="10" fill="#4472C4"/><path d="M2049.44 385.468C2049.44 391.543 2044.51 396.468 2038.44 396.468 2032.36 396.468 2027.44 391.543 2027.44 385.468 2027.44 379.393 2032.36 374.469 2038.44 374.469 2044.51 374.469 2049.44 379.393 2049.44 385.468Z" stroke="#4472C4" stroke-width="3.4375" stroke-linejoin="round" stroke-miterlimit="10" fill="#4472C4"/><path d="M2137.44 391.468C2137.44 397.543 2132.51 402.468 2126.44 402.468 2120.36 402.468 2115.44 397.543 2115.44 391.468 2115.44 385.393 2120.36 380.469 2126.44 380.469 2132.51 380.469 2137.44 385.393 2137.44 391.468Z" stroke="#4472C4" stroke-width="3.4375" stroke-linejoin="round" stroke-miterlimit="10" fill="#4472C4"/><path d="M2226.44 370.468C2226.44 376.543 2221.51 381.468 2215.44 381.468 2209.36 381.468 2204.44 376.543 2204.44 370.468 2204.44 364.393 2209.36 359.469 2215.44 359.469 2221.51 359.469 2226.44 364.393 2226.44 370.468Z" stroke="#4472C4" stroke-width="3.4375" stroke-linejoin="round" stroke-miterlimit="10" fill="#4472C4"/><path d="M2315.44 385.468C2315.44 391.543 2310.51 396.468 2304.44 396.468 2298.36 396.468 2293.44 391.543 2293.44 385.468 2293.44 379.393 2298.36 374.469 2304.44 374.469 2310.51 374.469 2315.44 379.393 2315.44 385.468Z" stroke="#4472C4" stroke-width="3.4375" stroke-linejoin="round" stroke-miterlimit="10" fill="#4472C4"/></g><g clip-path="url(#clip4)"><path d="M1427.44 429.468C1427.44 435.543 1422.51 440.468 1416.44 440.468 1410.36 440.468 1405.44 435.543 1405.44 429.468 1405.44 423.393 1410.36 418.469 1416.44 418.469 1422.51 418.469 1427.44 423.393 1427.44 429.468Z" stroke="#ED7D31" stroke-width="3.4375" stroke-linejoin="round" stroke-miterlimit="10" fill="#ED7D31"/><path d="M1515.44 314.468C1515.44 320.543 1510.51 325.468 1504.44 325.468 1498.36 325.468 1493.44 320.543 1493.44 314.468 1493.44 308.393 1498.36 303.469 1504.44 303.469 1510.51 303.469 1515.44 308.393 1515.44 314.468Z" stroke="#ED7D31" stroke-width="3.4375" stroke-linejoin="round" stroke-miterlimit="10" fill="#ED7D31"/><path d="M1604.44 388.468C1604.44 394.543 1599.51 399.468 1593.44 399.468 1587.36 399.468 1582.44 394.543 1582.44 388.468 1582.44 382.393 1587.36 377.469 1593.44 377.469 1599.51 377.469 1604.44 382.393 1604.44 388.468Z" stroke="#ED7D31" stroke-width="3.4375" stroke-linejoin="round" stroke-miterlimit="10" fill="#ED7D31"/><path d="M1693.44 360.468C1693.44 366.543 1688.51 371.468 1682.44 371.468 1676.36 371.468 1671.44 366.543 1671.44 360.468 1671.44 354.393 1676.36 349.469 1682.44 349.469 1688.51 349.469 1693.44 354.393 1693.44 360.468Z" stroke="#ED7D31" stroke-width="3.4375" stroke-linejoin="round" stroke-miterlimit="10" fill="#ED7D31"/><path d="M1782.44 292.468C1782.44 298.543 1777.51 303.468 1771.44 303.468 1765.36 303.468 1760.44 298.543 1760.44 292.468 1760.44 286.393 1765.36 281.469 1771.44 281.469 1777.51 281.469 1782.44 286.393 1782.44 292.468Z" stroke="#ED7D31" stroke-width="3.4375" stroke-linejoin="round" stroke-miterlimit="10" fill="#ED7D31"/><path d="M1871.44 323.468C1871.44 329.543 1866.51 334.468 1860.44 334.468 1854.36 334.468 1849.44 329.543 1849.44 323.468 1849.44 317.393 1854.36 312.469 1860.44 312.469 1866.51 312.469 1871.44 317.393 1871.44 323.468Z" stroke="#ED7D31" stroke-width="3.4375" stroke-linejoin="round" stroke-miterlimit="10" fill="#ED7D31"/><path d="M1960.44 273.468C1960.44 279.543 1955.51 284.468 1949.44 284.468 1943.36 284.468 1938.44 279.543 1938.44 273.468 1938.44 267.393 1943.36 262.469 1949.44 262.469 1955.51 262.469 1960.44 267.393 1960.44 273.468Z" stroke="#ED7D31" stroke-width="3.4375" stroke-linejoin="round" stroke-miterlimit="10" fill="#ED7D31"/><path d="M2049.44 416.468C2049.44 422.543 2044.51 427.468 2038.44 427.468 2032.36 427.468 2027.44 422.543 2027.44 416.468 2027.44 410.393 2032.36 405.469 2038.44 405.469 2044.51 405.469 2049.44 410.393 2049.44 416.468Z" stroke="#ED7D31" stroke-width="3.4375" stroke-linejoin="round" stroke-miterlimit="10" fill="#ED7D31"/><path d="M2137.44 398.468C2137.44 404.543 2132.51 409.468 2126.44 409.468 2120.36 409.468 2115.44 404.543 2115.44 398.468 2115.44 392.393 2120.36 387.468 2126.44 387.468 2132.51 387.468 2137.44 392.393 2137.44 398.468Z" stroke="#ED7D31" stroke-width="3.4375" stroke-linejoin="round" stroke-miterlimit="10" fill="#ED7D31"/><path d="M2226.44 366.468C2226.44 372.543 2221.51 377.468 2215.44 377.468 2209.36 377.468 2204.44 372.543 2204.44 366.468 2204.44 360.393 2209.36 355.469 2215.44 355.469 2221.51 355.469 2226.44 360.393 2226.44 366.468Z" stroke="#ED7D31" stroke-width="3.4375" stroke-linejoin="round" stroke-miterlimit="10" fill="#ED7D31"/><path d="M2315.44 338.468C2315.44 344.543 2310.51 349.468 2304.44 349.468 2298.36 349.468 2293.44 344.543 2293.44 338.468 2293.44 332.393 2298.36 327.469 2304.44 327.469 2310.51 327.469 2315.44 332.393 2315.44 338.468Z" stroke="#ED7D31" stroke-width="3.4375" stroke-linejoin="round" stroke-miterlimit="10" fill="#ED7D31"/></g><g clip-path="url(#clip5)"><path d="M1427.44 382.468C1427.44 388.543 1422.51 393.468 1416.44 393.468 1410.36 393.468 1405.44 388.543 1405.44 382.468 1405.44 376.393 1410.36 371.469 1416.44 371.469 1422.51 371.469 1427.44 376.393 1427.44 382.468Z" stroke="#A5A5A5" stroke-width="3.4375" stroke-linejoin="round" stroke-miterlimit="10" fill="#A5A5A5"/><path d="M1515.44 345.468C1515.44 351.543 1510.51 356.468 1504.44 356.468 1498.36 356.468 1493.44 351.543 1493.44 345.468 1493.44 339.393 1498.36 334.469 1504.44 334.469 1510.51 334.469 1515.44 339.393 1515.44 345.468Z" stroke="#A5A5A5" stroke-width="3.4375" stroke-linejoin="round" stroke-miterlimit="10" fill="#A5A5A5"/><path d="M1604.44 388.468C1604.44 394.543 1599.51 399.468 1593.44 399.468 1587.36 399.468 1582.44 394.543 1582.44 388.468 1582.44 382.393 1587.36 377.469 1593.44 377.469 1599.51 377.469 1604.44 382.393 1604.44 388.468Z" stroke="#A5A5A5" stroke-width="3.4375" stroke-linejoin="round" stroke-miterlimit="10" fill="#A5A5A5"/><path d="M1693.44 354.468C1693.44 360.543 1688.51 365.468 1682.44 365.468 1676.36 365.468 1671.44 360.543 1671.44 354.468 1671.44 348.393 1676.36 343.468 1682.44 343.468 1688.51 343.468 1693.44 348.393 1693.44 354.468Z" stroke="#A5A5A5" stroke-width="3.4375" stroke-linejoin="round" stroke-miterlimit="10" fill="#A5A5A5"/><path d="M1782.44 382.468C1782.44 388.543 1777.51 393.468 1771.44 393.468 1765.36 393.468 1760.44 388.543 1760.44 382.468 1760.44 376.393 1765.36 371.469 1771.44 371.469 1777.51 371.469 1782.44 376.393 1782.44 382.468Z" stroke="#A5A5A5" stroke-width="3.4375" stroke-linejoin="round" stroke-miterlimit="10" fill="#A5A5A5"/><path d="M1871.44 366.468C1871.44 372.543 1866.51 377.468 1860.44 377.468 1854.36 377.468 1849.44 372.543 1849.44 366.468 1849.44 360.393 1854.36 355.469 1860.44 355.469 1866.51 355.469 1871.44 360.393 1871.44 366.468Z" stroke="#A5A5A5" stroke-width="3.4375" stroke-linejoin="round" stroke-miterlimit="10" fill="#A5A5A5"/><path d="M1960.44 366.468C1960.44 372.543 1955.51 377.468 1949.44 377.468 1943.36 377.468 1938.44 372.543 1938.44 366.468 1938.44 360.393 1943.36 355.469 1949.44 355.469 1955.51 355.469 1960.44 360.393 1960.44 366.468Z" stroke="#A5A5A5" stroke-width="3.4375" stroke-linejoin="round" stroke-miterlimit="10" fill="#A5A5A5"/><path d="M2049.44 242.468C2049.44 248.543 2044.51 253.468 2038.44 253.468 2032.36 253.468 2027.44 248.543 2027.44 242.468 2027.44 236.393 2032.36 231.469 2038.44 231.469 2044.51 231.469 2049.44 236.393 2049.44 242.468Z" stroke="#A5A5A5" stroke-width="3.4375" stroke-linejoin="round" stroke-miterlimit="10" fill="#A5A5A5"/><path d="M2137.44 292.468C2137.44 298.543 2132.51 303.468 2126.44 303.468 2120.36 303.468 2115.44 298.543 2115.44 292.468 2115.44 286.393 2120.36 281.469 2126.44 281.469 2132.51 281.469 2137.44 286.393 2137.44 292.468Z" stroke="#A5A5A5" stroke-width="3.4375" stroke-linejoin="round" stroke-miterlimit="10" fill="#A5A5A5"/><path d="M2226.44 270.468C2226.44 276.543 2221.51 281.468 2215.44 281.468 2209.36 281.468 2204.44 276.543 2204.44 270.468 2204.44 264.393 2209.36 259.469 2215.44 259.469 2221.51 259.469 2226.44 264.393 2226.44 270.468Z" stroke="#A5A5A5" stroke-width="3.4375" stroke-linejoin="round" stroke-miterlimit="10" fill="#A5A5A5"/><path d="M2315.44 404.468C2315.44 410.543 2310.51 415.468 2304.44 415.468 2298.36 415.468 2293.44 410.543 2293.44 404.468 2293.44 398.393 2298.36 393.469 2304.44 393.469 2310.51 393.469 2315.44 398.393 2315.44 404.468Z" stroke="#A5A5A5" stroke-width="3.4375" stroke-linejoin="round" stroke-miterlimit="10" fill="#A5A5A5"/></g><g clip-path="url(#clip6)"><path d="M1427.44 354.468C1427.44 360.543 1422.51 365.468 1416.44 365.468 1410.36 365.468 1405.44 360.543 1405.44 354.468 1405.44 348.393 1410.36 343.468 1416.44 343.468 1422.51 343.468 1427.44 348.393 1427.44 354.468Z" stroke="#FFC000" stroke-width="3.4375" stroke-linejoin="round" stroke-miterlimit="10" fill="#FFC000"/><path d="M1515.44 329.468C1515.44 335.543 1510.51 340.468 1504.44 340.468 1498.36 340.468 1493.44 335.543 1493.44 329.468 1493.44 323.393 1498.36 318.469 1504.44 318.469 1510.51 318.469 1515.44 323.393 1515.44 329.468Z" stroke="#FFC000" stroke-width="3.4375" stroke-linejoin="round" stroke-miterlimit="10" fill="#FFC000"/><path d="M1604.44 342.468C1604.44 348.543 1599.51 353.468 1593.44 353.468 1587.36 353.468 1582.44 348.543 1582.44 342.468 1582.44 336.393 1587.36 331.468 1593.44 331.468 1599.51 331.468 1604.44 336.393 1604.44 342.468Z" stroke="#FFC000" stroke-width="3.4375" stroke-linejoin="round" stroke-miterlimit="10" fill="#FFC000"/><path d="M1693.44 332.468C1693.44 338.543 1688.51 343.468 1682.44 343.468 1676.36 343.468 1671.44 338.543 1671.44 332.468 1671.44 326.393 1676.36 321.468 1682.44 321.468 1688.51 321.468 1693.44 326.393 1693.44 332.468Z" stroke="#FFC000" stroke-width="3.4375" stroke-linejoin="round" stroke-miterlimit="10" fill="#FFC000"/><path d="M1782.44 338.468C1782.44 344.543 1777.51 349.468 1771.44 349.468 1765.36 349.468 1760.44 344.543 1760.44 338.468 1760.44 332.393 1765.36 327.469 1771.44 327.469 1777.51 327.469 1782.44 332.393 1782.44 338.468Z" stroke="#FFC000" stroke-width="3.4375" stroke-linejoin="round" stroke-miterlimit="10" fill="#FFC000"/><path d="M1871.44 348.468C1871.44 354.543 1866.51 359.468 1860.44 359.468 1854.36 359.468 1849.44 354.543 1849.44 348.468 1849.44 342.393 1854.36 337.469 1860.44 337.469 1866.51 337.469 1871.44 342.393 1871.44 348.468Z" stroke="#FFC000" stroke-width="3.4375" stroke-linejoin="round" stroke-miterlimit="10" fill="#FFC000"/><path d="M1960.44 348.468C1960.44 354.543 1955.51 359.468 1949.44 359.468 1943.36 359.468 1938.44 354.543 1938.44 348.468 1938.44 342.393 1943.36 337.469 1949.44 337.469 1955.51 337.469 1960.44 342.393 1960.44 348.468Z" stroke="#FFC000" stroke-width="3.4375" stroke-linejoin="round" stroke-miterlimit="10" fill="#FFC000"/><path d="M2049.44 354.468C2049.44 360.543 2044.51 365.468 2038.44 365.468 2032.36 365.468 2027.44 360.543 2027.44 354.468 2027.44 348.393 2032.36 343.468 2038.44 343.468 2044.51 343.468 2049.44 348.393 2049.44 354.468Z" stroke="#FFC000" stroke-width="3.4375" stroke-linejoin="round" stroke-miterlimit="10" fill="#FFC000"/><path d="M2137.44 326.468C2137.44 332.543 2132.51 337.468 2126.44 337.468 2120.36 337.468 2115.44 332.543 2115.44 326.468 2115.44 320.393 2120.36 315.469 2126.44 315.469 2132.51 315.469 2137.44 320.393 2137.44 326.468Z" stroke="#FFC000" stroke-width="3.4375" stroke-linejoin="round" stroke-miterlimit="10" fill="#FFC000"/><path d="M2226.44 332.468C2226.44 338.543 2221.51 343.468 2215.44 343.468 2209.36 343.468 2204.44 338.543 2204.44 332.468 2204.44 326.393 2209.36 321.468 2215.44 321.468 2221.51 321.468 2226.44 326.393 2226.44 332.468Z" stroke="#FFC000" stroke-width="3.4375" stroke-linejoin="round" stroke-miterlimit="10" fill="#FFC000"/><path d="M2315.44 366.468C2315.44 372.543 2310.51 377.468 2304.44 377.468 2298.36 377.468 2293.44 372.543 2293.44 366.468 2293.44 360.393 2298.36 355.469 2304.44 355.469 2310.51 355.469 2315.44 360.393 2315.44 366.468Z" stroke="#FFC000" stroke-width="3.4375" stroke-linejoin="round" stroke-miterlimit="10" fill="#FFC000"/></g><g clip-path="url(#clip7)"><text fill="#595959" font-family="Calibri,Calibri_MSFontService,sans-serif" font-weight="400" font-size="41" transform="matrix(1 0 0 1 1270.73 566)">100</text></g><g clip-path="url(#clip8)"><text fill="#595959" font-family="Calibri,Calibri_MSFontService,sans-serif" font-weight="400" font-size="41" transform="matrix(1 0 0 1 1270.73 503)">120</text></g><g clip-path="url(#clip9)"><text fill="#595959" font-family="Calibri,Calibri_MSFontService,sans-serif" font-weight="400" font-size="41" transform="matrix(1 0 0 1 1270.73 441)">140</text></g><g clip-path="url(#clip10)"><text fill="#595959" font-family="Calibri,Calibri_MSFontService,sans-serif" font-weight="400" font-size="41" transform="matrix(1 0 0 1 1270.73 379)">160</text></g><g clip-path="url(#clip11)"><text fill="#595959" font-family="Calibri,Calibri_MSFontService,sans-serif" font-weight="400" font-size="41" transform="matrix(1 0 0 1 1270.73 316)">180</text></g><g clip-path="url(#clip12)"><text fill="#595959" font-family="Calibri,Calibri_MSFontService,sans-serif" font-weight="400" font-size="41" transform="matrix(1 0 0 1 1270.73 254)">200</text></g><g clip-path="url(#clip13)"><text fill="#595959" font-family="Calibri,Calibri_MSFontService,sans-serif" font-weight="400" font-size="41" transform="matrix(1 0 0 1 1270.73 192)">220</text></g><g clip-path="url(#clip14)"><text fill="#595959" font-family="Calibri,Calibri_MSFontService,sans-serif" font-weight="400" font-size="41" transform="matrix(1 0 0 1 1405.67 619)">1</text></g><g clip-path="url(#clip15)"><text fill="#595959" font-family="Calibri,Calibri_MSFontService,sans-serif" font-weight="400" font-size="41" transform="matrix(1 0 0 1 1494.51 619)">2</text></g><g clip-path="url(#clip16)"><text fill="#595959" font-family="Calibri,Calibri_MSFontService,sans-serif" font-weight="400" font-size="41" transform="matrix(1 0 0 1 1583.35 619)">3</text></g><g clip-path="url(#clip17)"><text fill="#595959" font-family="Calibri,Calibri_MSFontService,sans-serif" font-weight="400" font-size="41" transform="matrix(1 0 0 1 1672.19 619)">4</text></g><g clip-path="url(#clip18)"><text fill="#595959" font-family="Calibri,Calibri_MSFontService,sans-serif" font-weight="400" font-size="41" transform="matrix(1 0 0 1 1761.03 619)">5</text></g><g clip-path="url(#clip19)"><text fill="#595959" font-family="Calibri,Calibri_MSFontService,sans-serif" font-weight="400" font-size="41" transform="matrix(1 0 0 1 1849.88 619)">6</text></g><g clip-path="url(#clip20)"><text fill="#595959" font-family="Calibri,Calibri_MSFontService,sans-serif" font-weight="400" font-size="41" transform="matrix(1 0 0 1 1938.72 619)">7</text></g><g clip-path="url(#clip21)"><text fill="#595959" font-family="Calibri,Calibri_MSFontService,sans-serif" font-weight="400" font-size="41" transform="matrix(1 0 0 1 2027.56 619)">8</text></g><g clip-path="url(#clip22)"><text fill="#595959" font-family="Calibri,Calibri_MSFontService,sans-serif" font-weight="400" font-size="41" transform="matrix(1 0 0 1 2116.4 619)">9</text></g><g clip-path="url(#clip23)"><text fill="#595959" font-family="Calibri,Calibri_MSFontService,sans-serif" font-weight="400" font-size="41" transform="matrix(1 0 0 1 2194.8 619)">10</text></g><g clip-path="url(#clip24)"><text fill="#595959" font-family="Calibri,Calibri_MSFontService,sans-serif" font-weight="400" font-size="41" transform="matrix(1 0 0 1 2283.64 619)">11</text></g><g clip-path="url(#clip25)"><text fill="#595959" font-family="Calibri,Calibri_MSFontService,sans-serif" font-weight="400" font-size="64" transform="matrix(1 0 0 1 1682.07 105)">Altura(cm)</text></g><g clip-path="url(#clip26)"><path d="M1550 699C1550 705.075 1545.08 709.999 1539 709.999 1532.93 709.999 1528 705.075 1528 699 1528 692.925 1532.93 688 1539 688 1545.08 688 1550 692.925 1550 699Z" stroke="#4472C4" stroke-width="3.4375" stroke-linejoin="round" stroke-miterlimit="10" fill="#4472C4"/></g><g clip-path="url(#clip27)"><text fill="#595959" font-family="Calibri,Calibri_MSFontService,sans-serif" font-weight="400" font-size="41" transform="matrix(1 0 0 1 1560.61 711)">aula1</text></g><g clip-path="url(#clip28)"><path d="M1709 699C1709 705.075 1704.07 709.999 1698 709.999 1691.92 709.999 1687 705.075 1687 699 1687 692.925 1691.92 688 1698 688 1704.07 688 1709 692.925 1709 699Z" stroke="#ED7D31" stroke-width="3.4375" stroke-linejoin="round" stroke-miterlimit="10" fill="#ED7D31"/></g><g clip-path="url(#clip29)"><text fill="#595959" font-family="Calibri,Calibri_MSFontService,sans-serif" font-weight="400" font-size="41" transform="matrix(1 0 0 1 1719.37 711)">aula2</text></g><g clip-path="url(#clip30)"><path d="M1868 699C1868 705.075 1863.08 709.999 1857 709.999 1850.93 709.999 1846 705.075 1846 699 1846 692.925 1850.93 688 1857 688 1863.08 688 1868 692.925 1868 699Z" stroke="#A5A5A5" stroke-width="3.4375" stroke-linejoin="round" stroke-miterlimit="10" fill="#A5A5A5"/></g><g clip-path="url(#clip31)"><text fill="#595959" font-family="Calibri,Calibri_MSFontService,sans-serif" font-weight="400" font-size="41" transform="matrix(1 0 0 1 1878.14 711)">aula3</text></g><g clip-path="url(#clip32)"><path d="M2026 699C2026 705.075 2021.07 709.999 2015 709.999 2008.92 709.999 2004 705.075 2004 699 2004 692.925 2008.92 688 2015 688 2021.07 688 2026 692.925 2026 699Z" stroke="#FFC000" stroke-width="3.4375" stroke-linejoin="round" stroke-miterlimit="10" fill="#FFC000"/></g><g clip-path="url(#clip33)"><text fill="#595959" font-family="Calibri,Calibri_MSFontService,sans-serif" font-weight="400" font-size="41" transform="matrix(1 0 0 1 2036.9 711)">aula4</text></g><rect x="1241.5" y="10.5002" width="1158" height="755" stroke="#D9D9D9" stroke-width="3.4375" stroke-linejoin="round" stroke-miterlimit="10" fill="none"/></g></svg>