<svg width="1167" height="758" xmlns="http://www.w3.org/2000/svg" xmlns:xlink="http://www.w3.org/1999/xlink" xml:space="preserve" overflow="hidden"><defs><clipPath id="clip0"><rect x="2411" y="0" width="1167" height="758"/></clipPath><clipPath id="clip1"><rect x="2411" y="0" width="1164" height="755"/></clipPath><clipPath id="clip2"><rect x="2411" y="0" width="1164" height="755"/></clipPath><clipPath id="clip3"><rect x="2411" y="0" width="1164" height="755"/></clipPath><clipPath id="clip4"><rect x="2411" y="0" width="1164" height="755"/></clipPath><clipPath id="clip5"><rect x="2411" y="0" width="1164" height="755"/></clipPath><clipPath id="clip6"><rect x="2411" y="0" width="1164" height="755"/></clipPath><clipPath id="clip7"><rect x="2411" y="0" width="1164" height="755"/></clipPath><clipPath id="clip8"><rect x="2411" y="0" width="1164" height="755"/></clipPath><clipPath id="clip9"><rect x="2411" y="0" width="1164" height="755"/></clipPath><clipPath id="clip10"><rect x="2411" y="0" width="1164" height="755"/></clipPath><clipPath id="clip11"><rect x="2411" y="0" width="1164" height="755"/></clipPath><clipPath id="clip12"><rect x="2411" y="0" width="1164" height="755"/></clipPath><clipPath id="clip13"><rect x="2411" y="0" width="1164" height="755"/></clipPath><clipPath id="clip14"><rect x="2411" y="0" width="1164" height="755"/></clipPath><clipPath id="clip15"><rect x="2411" y="0" width="1164" height="755"/></clipPath><clipPath id="clip16"><rect x="2411" y="0" width="1164" height="755"/></clipPath><clipPath id="clip17"><rect x="2411" y="0" width="1164" height="755"/></clipPath><clipPath id="clip18"><rect x="2411" y="0" width="1164" height="755"/></clipPath><clipPath id="clip19"><rect x="2411" y="0" width="1164" height="755"/></clipPath><clipPath id="clip20"><rect x="2411" y="0" width="1164" height="755"/></clipPath><clipPath id="clip21"><rect x="2411" y="0" width="1164" height="755"/></clipPath><clipPath id="clip22"><rect x="2411" y="0" width="1164" height="755"/></clipPath><clipPath id="clip23"><rect x="2411" y="0" width="1164" height="755"/></clipPath><clipPath id="clip24"><rect x="2411" y="0" width="1164" height="755"/></clipPath><clipPath id="clip25"><rect x="2411" y="0" width="1164" height="755"/></clipPath></defs><g clip-path="url(#clip0)" transform="translate(-2411 0)"><rect x="2412" y="1.00003" width="1164" height="755" fill="#FFFFFF"/><g clip-path="url(#clip1)"><path d="M2542.5 569.519 3525.5 569.519M2542.5 489.516 3525.5 489.516M2542.5 410.514 3525.5 410.514M2542.5 330.511 3525.5 330.511M2542.5 250.508 3525.5 250.508M2542.5 170.5 3525.5 170.5" stroke="#D9D9D9" stroke-width="3.4375" stroke-linejoin="round" stroke-miterlimit="10" fill="none"/></g><g clip-path="url(#clip2)"><path d="M2542.5 649.5 3525.5 649.5" stroke="#D9D9D9" stroke-width="3.4375" stroke-linejoin="round" stroke-miterlimit="10" fill="none" fill-rule="evenodd"/></g><g clip-path="url(#clip3)"><path d="M2676.25 438.188C2676.25 444.263 2671.32 449.187 2665.25 449.187 2659.17 449.187 2654.25 444.263 2654.25 438.188 2654.25 432.113 2659.17 427.188 2665.25 427.188 2671.32 427.188 2676.25 432.113 2676.25 438.188Z" stroke="#4472C4" stroke-width="3.4375" stroke-linejoin="round" stroke-miterlimit="10" fill="#4472C4"/><path d="M2922.25 489.187C2922.25 495.262 2917.32 500.187 2911.25 500.187 2905.17 500.187 2900.25 495.262 2900.25 489.187 2900.25 483.113 2905.17 478.188 2911.25 478.188 2917.32 478.188 2922.25 483.113 2922.25 489.187Z" stroke="#4472C4" stroke-width="3.4375" stroke-linejoin="round" stroke-miterlimit="10" fill="#4472C4"/><path d="M3167.25 430.187C3167.25 436.262 3162.32 441.187 3156.25 441.187 3150.17 441.187 3145.25 436.262 3145.25 430.187 3145.25 424.112 3150.17 419.188 3156.25 419.188 3162.32 419.188 3167.25 424.112 3167.25 430.187Z" stroke="#4472C4" stroke-width="3.4375" stroke-linejoin="round" stroke-miterlimit="10" fill="#4472C4"/><path d="M3413.25 394.188C3413.25 400.263 3408.32 405.187 3402.25 405.187 3396.17 405.187 3391.25 400.263 3391.25 394.188 3391.25 388.113 3396.17 383.188 3402.25 383.188 3408.32 383.188 3413.25 388.113 3413.25 394.188Z" stroke="#4472C4" stroke-width="3.4375" stroke-linejoin="round" stroke-miterlimit="10" fill="#4472C4"/></g><g clip-path="url(#clip4)"><path d="M2676.25 509.187C2676.25 515.262 2671.32 520.187 2665.25 520.187 2659.17 520.187 2654.25 515.262 2654.25 509.187 2654.25 503.112 2659.17 498.188 2665.25 498.188 2671.32 498.188 2676.25 503.112 2676.25 509.187Z" stroke="#ED7D31" stroke-width="3.4375" stroke-linejoin="round" stroke-miterlimit="10" fill="#ED7D31"/><path d="M2922.25 342.187C2922.25 348.262 2917.32 353.187 2911.25 353.187 2905.17 353.187 2900.25 348.262 2900.25 342.187 2900.25 336.112 2905.17 331.188 2911.25 331.188 2917.32 331.188 2922.25 336.112 2922.25 342.187Z" stroke="#ED7D31" stroke-width="3.4375" stroke-linejoin="round" stroke-miterlimit="10" fill="#ED7D31"/><path d="M3167.25 382.188C3167.25 388.263 3162.32 393.187 3156.25 393.187 3150.17 393.187 3145.25 388.263 3145.25 382.188 3145.25 376.113 3150.17 371.188 3156.25 371.188 3162.32 371.188 3167.25 376.113 3167.25 382.188Z" stroke="#ED7D31" stroke-width="3.4375" stroke-linejoin="round" stroke-miterlimit="10" fill="#ED7D31"/><path d="M3413.25 362.188C3413.25 368.263 3408.32 373.187 3402.25 373.187 3396.17 373.187 3391.25 368.263 3391.25 362.188 3391.25 356.113 3396.17 351.188 3402.25 351.188 3408.32 351.188 3413.25 356.113 3413.25 362.188Z" stroke="#ED7D31" stroke-width="3.4375" stroke-linejoin="round" stroke-miterlimit="10" fill="#ED7D31"/></g><g clip-path="url(#clip5)"><path d="M2676.25 489.187C2676.25 495.262 2671.32 500.187 2665.25 500.187 2659.17 500.187 2654.25 495.262 2654.25 489.187 2654.25 483.113 2659.17 478.188 2665.25 478.188 2671.32 478.188 2676.25 483.113 2676.25 489.187Z" stroke="#A5A5A5" stroke-width="3.4375" stroke-linejoin="round" stroke-miterlimit="10" fill="#A5A5A5"/><path d="M2922.25 438.188C2922.25 444.263 2917.32 449.187 2911.25 449.187 2905.17 449.187 2900.25 444.263 2900.25 438.188 2900.25 432.113 2905.17 427.188 2911.25 427.188 2917.32 427.188 2922.25 432.113 2922.25 438.188Z" stroke="#A5A5A5" stroke-width="3.4375" stroke-linejoin="round" stroke-miterlimit="10" fill="#A5A5A5"/><path d="M3167.25 438.188C3167.25 444.263 3162.32 449.187 3156.25 449.187 3150.17 449.187 3145.25 444.263 3145.25 438.188 3145.25 432.113 3150.17 427.188 3156.25 427.188 3162.32 427.188 3167.25 432.113 3167.25 438.188Z" stroke="#A5A5A5" stroke-width="3.4375" stroke-linejoin="round" stroke-miterlimit="10" fill="#A5A5A5"/><path d="M3413.25 378.187C3413.25 384.262 3408.32 389.187 3402.25 389.187 3396.17 389.187 3391.25 384.262 3391.25 378.187 3391.25 372.112 3396.17 367.188 3402.25 367.188 3408.32 367.188 3413.25 372.112 3413.25 378.187Z" stroke="#A5A5A5" stroke-width="3.4375" stroke-linejoin="round" stroke-miterlimit="10" fill="#A5A5A5"/></g><g clip-path="url(#clip6)"><path d="M2676.25 489.187C2676.25 495.262 2671.32 500.187 2665.25 500.187 2659.17 500.187 2654.25 495.262 2654.25 489.187 2654.25 483.113 2659.17 478.188 2665.25 478.188 2671.32 478.188 2676.25 483.113 2676.25 489.187Z" stroke="#FFC000" stroke-width="3.4375" stroke-linejoin="round" stroke-miterlimit="10" fill="#FFC000"/><path d="M2922.25 402.188C2922.25 408.262 2917.32 413.187 2911.25 413.187 2905.17 413.187 2900.25 408.262 2900.25 402.188 2900.25 396.113 2905.17 391.188 2911.25 391.188 2917.32 391.188 2922.25 396.113 2922.25 402.188Z" stroke="#FFC000" stroke-width="3.4375" stroke-linejoin="round" stroke-miterlimit="10" fill="#FFC000"/><path d="M3167.25 394.188C3167.25 400.263 3162.32 405.187 3156.25 405.187 3150.17 405.187 3145.25 400.263 3145.25 394.188 3145.25 388.113 3150.17 383.188 3156.25 383.188 3162.32 383.188 3167.25 388.113 3167.25 394.188Z" stroke="#FFC000" stroke-width="3.4375" stroke-linejoin="round" stroke-miterlimit="10" fill="#FFC000"/><path d="M3413.25 366.187C3413.25 372.262 3408.32 377.187 3402.25 377.187 3396.17 377.187 3391.25 372.262 3391.25 366.187 3391.25 360.112 3396.17 355.188 3402.25 355.188 3408.32 355.188 3413.25 360.112 3413.25 366.187Z" stroke="#FFC000" stroke-width="3.4375" stroke-linejoin="round" stroke-miterlimit="10" fill="#FFC000"/></g><g clip-path="url(#clip7)"><path d="M2676.25 350.188C2676.25 356.263 2671.32 361.187 2665.25 361.187 2659.17 361.187 2654.25 356.263 2654.25 350.188 2654.25 344.113 2659.17 339.188 2665.25 339.188 2671.32 339.188 2676.25 344.113 2676.25 350.188Z" stroke="#5B9BD5" stroke-width="3.4375" stroke-linejoin="round" stroke-miterlimit="10" fill="#5B9BD5"/><path d="M2922.25 314.188C2922.25 320.262 2917.32 325.187 2911.25 325.187 2905.17 325.187 2900.25 320.262 2900.25 314.188 2900.25 308.113 2905.17 303.188 2911.25 303.188 2917.32 303.188 2922.25 308.113 2922.25 314.188Z" stroke="#5B9BD5" stroke-width="3.4375" stroke-linejoin="round" stroke-miterlimit="10" fill="#5B9BD5"/><path d="M3167.25 430.187C3167.25 436.262 3162.32 441.187 3156.25 441.187 3150.17 441.187 3145.25 436.262 3145.25 430.187 3145.25 424.112 3150.17 419.188 3156.25 419.188 3162.32 419.188 3167.25 424.112 3167.25 430.187Z" stroke="#5B9BD5" stroke-width="3.4375" stroke-linejoin="round" stroke-miterlimit="10" fill="#5B9BD5"/><path d="M3413.25 374.188C3413.25 380.263 3408.32 385.187 3402.25 385.187 3396.17 385.187 3391.25 380.263 3391.25 374.188 3391.25 368.113 3396.17 363.188 3402.25 363.188 3408.32 363.188 3413.25 368.113 3413.25 374.188Z" stroke="#5B9BD5" stroke-width="3.4375" stroke-linejoin="round" stroke-miterlimit="10" fill="#5B9BD5"/></g><g clip-path="url(#clip8)"><path d="M2676.25 497.187C2676.25 503.262 2671.32 508.187 2665.25 508.187 2659.17 508.187 2654.25 503.262 2654.25 497.187 2654.25 491.112 2659.17 486.188 2665.25 486.188 2671.32 486.188 2676.25 491.112 2676.25 497.187Z" stroke="#70AD47" stroke-width="3.4375" stroke-linejoin="round" stroke-miterlimit="10" fill="#70AD47"/><path d="M2922.25 354.187C2922.25 360.262 2917.32 365.187 2911.25 365.187 2905.17 365.187 2900.25 360.262 2900.25 354.187 2900.25 348.112 2905.17 343.188 2911.25 343.188 2917.32 343.188 2922.25 348.112 2922.25 354.187Z" stroke="#70AD47" stroke-width="3.4375" stroke-linejoin="round" stroke-miterlimit="10" fill="#70AD47"/><path d="M3167.25 410.187C3167.25 416.262 3162.32 421.187 3156.25 421.187 3150.17 421.187 3145.25 416.262 3145.25 410.187 3145.25 404.112 3150.17 399.188 3156.25 399.188 3162.32 399.188 3167.25 404.112 3167.25 410.187Z" stroke="#70AD47" stroke-width="3.4375" stroke-linejoin="round" stroke-miterlimit="10" fill="#70AD47"/><path d="M3413.25 386.187C3413.25 392.262 3408.32 397.187 3402.25 397.187 3396.17 397.187 3391.25 392.262 3391.25 386.187 3391.25 380.112 3396.17 375.188 3402.25 375.188 3408.32 375.188 3413.25 380.112 3413.25 386.187Z" stroke="#70AD47" stroke-width="3.4375" stroke-linejoin="round" stroke-miterlimit="10" fill="#70AD47"/></g><g clip-path="url(#clip9)"><path d="M2676.25 469.188C2676.25 475.262 2671.32 480.187 2665.25 480.187 2659.17 480.187 2654.25 475.262 2654.25 469.188 2654.25 463.113 2659.17 458.188 2665.25 458.188 2671.32 458.188 2676.25 463.113 2676.25 469.188Z" stroke="#264478" stroke-width="3.4375" stroke-linejoin="round" stroke-miterlimit="10" fill="#264478"/><path d="M2922.25 290.187C2922.25 296.262 2917.32 301.187 2911.25 301.187 2905.17 301.187 2900.25 296.262 2900.25 290.187 2900.25 284.112 2905.17 279.188 2911.25 279.188 2917.32 279.188 2922.25 284.112 2922.25 290.187Z" stroke="#264478" stroke-width="3.4375" stroke-linejoin="round" stroke-miterlimit="10" fill="#264478"/><path d="M3167.25 410.187C3167.25 416.262 3162.32 421.187 3156.25 421.187 3150.17 421.187 3145.25 416.262 3145.25 410.187 3145.25 404.112 3150.17 399.188 3156.25 399.188 3162.32 399.188 3167.25 404.112 3167.25 410.187Z" stroke="#264478" stroke-width="3.4375" stroke-linejoin="round" stroke-miterlimit="10" fill="#264478"/><path d="M3413.25 386.187C3413.25 392.262 3408.32 397.187 3402.25 397.187 3396.17 397.187 3391.25 392.262 3391.25 386.187 3391.25 380.112 3396.17 375.188 3402.25 375.188 3408.32 375.188 3413.25 380.112 3413.25 386.187Z" stroke="#264478" stroke-width="3.4375" stroke-linejoin="round" stroke-miterlimit="10" fill="#264478"/></g><g clip-path="url(#clip10)"><path d="M2676.25 434.187C2676.25 440.262 2671.32 445.187 2665.25 445.187 2659.17 445.187 2654.25 440.262 2654.25 434.187 2654.25 428.113 2659.17 423.188 2665.25 423.188 2671.32 423.188 2676.25 428.113 2676.25 434.187Z" stroke="#9E480E" stroke-width="3.4375" stroke-linejoin="round" stroke-miterlimit="10" fill="#9E480E"/><path d="M2922.25 473.188C2922.25 479.263 2917.32 484.187 2911.25 484.187 2905.17 484.187 2900.25 479.263 2900.25 473.188 2900.25 467.113 2905.17 462.188 2911.25 462.188 2917.32 462.188 2922.25 467.113 2922.25 473.188Z" stroke="#9E480E" stroke-width="3.4375" stroke-linejoin="round" stroke-miterlimit="10" fill="#9E480E"/><path d="M3167.25 250.188C3167.25 256.263 3162.32 261.187 3156.25 261.187 3150.17 261.187 3145.25 256.263 3145.25 250.188 3145.25 244.113 3150.17 239.188 3156.25 239.188 3162.32 239.188 3167.25 244.113 3167.25 250.188Z" stroke="#9E480E" stroke-width="3.4375" stroke-linejoin="round" stroke-miterlimit="10" fill="#9E480E"/><path d="M3413.25 394.188C3413.25 400.263 3408.32 405.187 3402.25 405.187 3396.17 405.187 3391.25 400.263 3391.25 394.188 3391.25 388.113 3396.17 383.188 3402.25 383.188 3408.32 383.188 3413.25 388.113 3413.25 394.188Z" stroke="#9E480E" stroke-width="3.4375" stroke-linejoin="round" stroke-miterlimit="10" fill="#9E480E"/></g><g clip-path="url(#clip11)"><path d="M2676.25 442.187C2676.25 448.262 2671.32 453.187 2665.25 453.187 2659.17 453.187 2654.25 448.262 2654.25 442.187 2654.25 436.112 2659.17 431.188 2665.25 431.188 2671.32 431.188 2676.25 436.112 2676.25 442.187Z" stroke="#636363" stroke-width="3.4375" stroke-linejoin="round" stroke-miterlimit="10" fill="#636363"/><path d="M2922.25 450.188C2922.25 456.263 2917.32 461.187 2911.25 461.187 2905.17 461.187 2900.25 456.263 2900.25 450.188 2900.25 444.113 2905.17 439.188 2911.25 439.188 2917.32 439.188 2922.25 444.113 2922.25 450.188Z" stroke="#636363" stroke-width="3.4375" stroke-linejoin="round" stroke-miterlimit="10" fill="#636363"/><path d="M3167.25 314.188C3167.25 320.262 3162.32 325.187 3156.25 325.187 3150.17 325.187 3145.25 320.262 3145.25 314.188 3145.25 308.113 3150.17 303.188 3156.25 303.188 3162.32 303.188 3167.25 308.113 3167.25 314.188Z" stroke="#636363" stroke-width="3.4375" stroke-linejoin="round" stroke-miterlimit="10" fill="#636363"/><path d="M3413.25 358.188C3413.25 364.262 3408.32 369.187 3402.25 369.187 3396.17 369.187 3391.25 364.262 3391.25 358.188 3391.25 352.113 3396.17 347.188 3402.25 347.188 3408.32 347.188 3413.25 352.113 3413.25 358.188Z" stroke="#636363" stroke-width="3.4375" stroke-linejoin="round" stroke-miterlimit="10" fill="#636363"/></g><g clip-path="url(#clip12)"><path d="M2676.25 414.188C2676.25 420.262 2671.32 425.187 2665.25 425.187 2659.17 425.187 2654.25 420.262 2654.25 414.188 2654.25 408.113 2659.17 403.188 2665.25 403.188 2671.32 403.188 2676.25 408.113 2676.25 414.188Z" stroke="#997300" stroke-width="3.4375" stroke-linejoin="round" stroke-miterlimit="10" fill="#997300"/><path d="M2922.25 410.187C2922.25 416.262 2917.32 421.187 2911.25 421.187 2905.17 421.187 2900.25 416.262 2900.25 410.187 2900.25 404.112 2905.17 399.188 2911.25 399.188 2917.32 399.188 2922.25 404.112 2922.25 410.187Z" stroke="#997300" stroke-width="3.4375" stroke-linejoin="round" stroke-miterlimit="10" fill="#997300"/><path d="M3167.25 286.188C3167.25 292.263 3162.32 297.187 3156.25 297.187 3150.17 297.187 3145.25 292.263 3145.25 286.188 3145.25 280.113 3150.17 275.188 3156.25 275.188 3162.32 275.188 3167.25 280.113 3167.25 286.188Z" stroke="#997300" stroke-width="3.4375" stroke-linejoin="round" stroke-miterlimit="10" fill="#997300"/><path d="M3413.25 366.187C3413.25 372.262 3408.32 377.187 3402.25 377.187 3396.17 377.187 3391.25 372.262 3391.25 366.187 3391.25 360.112 3396.17 355.188 3402.25 355.188 3408.32 355.188 3413.25 360.112 3413.25 366.187Z" stroke="#997300" stroke-width="3.4375" stroke-linejoin="round" stroke-miterlimit="10" fill="#997300"/></g><g clip-path="url(#clip13)"><path d="M2676.25 434.187C2676.25 440.262 2671.32 445.187 2665.25 445.187 2659.17 445.187 2654.25 440.262 2654.25 434.187 2654.25 428.113 2659.17 423.188 2665.25 423.188 2671.32 423.188 2676.25 428.113 2676.25 434.187Z" stroke="#255E91" stroke-width="3.4375" stroke-linejoin="round" stroke-miterlimit="10" fill="#255E91"/><path d="M2922.25 374.188C2922.25 380.263 2917.32 385.187 2911.25 385.187 2905.17 385.187 2900.25 380.263 2900.25 374.188 2900.25 368.113 2905.17 363.188 2911.25 363.188 2917.32 363.188 2922.25 368.113 2922.25 374.188Z" stroke="#255E91" stroke-width="3.4375" stroke-linejoin="round" stroke-miterlimit="10" fill="#255E91"/><path d="M3167.25 458.188C3167.25 464.262 3162.32 469.187 3156.25 469.187 3150.17 469.187 3145.25 464.262 3145.25 458.188 3145.25 452.113 3150.17 447.188 3156.25 447.188 3162.32 447.188 3167.25 452.113 3167.25 458.188Z" stroke="#255E91" stroke-width="3.4375" stroke-linejoin="round" stroke-miterlimit="10" fill="#255E91"/><path d="M3413.25 410.187C3413.25 416.262 3408.32 421.187 3402.25 421.187 3396.17 421.187 3391.25 416.262 3391.25 410.187 3391.25 404.112 3396.17 399.188 3402.25 399.188 3408.32 399.188 3413.25 404.112 3413.25 410.187Z" stroke="#255E91" stroke-width="3.4375" stroke-linejoin="round" stroke-miterlimit="10" fill="#255E91"/></g><g clip-path="url(#clip14)"><text fill="#595959" font-family="Calibri,Calibri_MSFontService,sans-serif" font-weight="400" font-size="41" transform="matrix(1 0 0 1 2441.54 661)">100</text></g><g clip-path="url(#clip15)"><text fill="#595959" font-family="Calibri,Calibri_MSFontService,sans-serif" font-weight="400" font-size="41" transform="matrix(1 0 0 1 2441.54 581)">120</text></g><g clip-path="url(#clip16)"><text fill="#595959" font-family="Calibri,Calibri_MSFontService,sans-serif" font-weight="400" font-size="41" transform="matrix(1 0 0 1 2441.54 502)">140</text></g><g clip-path="url(#clip17)"><text fill="#595959" font-family="Calibri,Calibri_MSFontService,sans-serif" font-weight="400" font-size="41" transform="matrix(1 0 0 1 2441.54 422)">160</text></g><g clip-path="url(#clip18)"><text fill="#595959" font-family="Calibri,Calibri_MSFontService,sans-serif" font-weight="400" font-size="41" transform="matrix(1 0 0 1 2441.54 342)">180</text></g><g clip-path="url(#clip19)"><text fill="#595959" font-family="Calibri,Calibri_MSFontService,sans-serif" font-weight="400" font-size="41" transform="matrix(1 0 0 1 2441.54 262)">200</text></g><g clip-path="url(#clip20)"><text fill="#595959" font-family="Calibri,Calibri_MSFontService,sans-serif" font-weight="400" font-size="41" transform="matrix(1 0 0 1 2441.54 182)">220</text></g><g clip-path="url(#clip21)"><text fill="#595959" font-family="Calibri,Calibri_MSFontService,sans-serif" font-weight="400" font-size="41" transform="matrix(1 0 0 1 2619.58 715)">aula1</text></g><g clip-path="url(#clip22)"><text fill="#595959" font-family="Calibri,Calibri_MSFontService,sans-serif" font-weight="400" font-size="41" transform="matrix(1 0 0 1 2865.27 715)">aula2</text></g><g clip-path="url(#clip23)"><text fill="#595959" font-family="Calibri,Calibri_MSFontService,sans-serif" font-weight="400" font-size="41" transform="matrix(1 0 0 1 3110.96 715)">aula3</text></g><g clip-path="url(#clip24)"><text fill="#595959" font-family="Calibri,Calibri_MSFontService,sans-serif" font-weight="400" font-size="41" transform="matrix(1 0 0 1 3356.65 715)">aula4</text></g><g clip-path="url(#clip25)"><text fill="#595959" font-family="Calibri,Calibri_MSFontService,sans-serif" font-weight="400" font-size="64" transform="matrix(1 0 0 1 2855.63 96)">Altura(cm)</text></g><rect x="2412.5" y="1.49987" width="1164" height="755" stroke="#D9D9D9" stroke-width="3.4375" stroke-linejoin="round" stroke-miterlimit="10" fill="none"/></g></svg>