<svg width="3109" height="984" xmlns="http://www.w3.org/2000/svg" xmlns:xlink="http://www.w3.org/1999/xlink" xml:space="preserve" overflow="hidden"><defs><clipPath id="clip0"><rect x="841" y="60" width="3109" height="984"/></clipPath><clipPath id="clip1"><rect x="842" y="60" width="3106" height="981"/></clipPath><clipPath id="clip2"><rect x="842" y="60" width="3106" height="981"/></clipPath><clipPath id="clip3"><rect x="972" y="230" width="2929" height="708"/></clipPath><clipPath id="clip4"><rect x="842" y="60" width="3106" height="981"/></clipPath><clipPath id="clip5"><rect x="842" y="60" width="3106" height="981"/></clipPath><clipPath id="clip6"><rect x="842" y="60" width="3106" height="981"/></clipPath><clipPath id="clip7"><rect x="842" y="60" width="3106" height="981"/></clipPath><clipPath id="clip8"><rect x="842" y="60" width="3106" height="981"/></clipPath><clipPath id="clip9"><rect x="842" y="60" width="3106" height="981"/></clipPath><clipPath id="clip10"><rect x="842" y="60" width="3106" height="981"/></clipPath><clipPath id="clip11"><rect x="842" y="60" width="3106" height="981"/></clipPath><clipPath id="clip12"><rect x="842" y="60" width="3106" height="981"/></clipPath><clipPath id="clip13"><rect x="842" y="60" width="3106" height="981"/></clipPath><clipPath id="clip14"><rect x="842" y="60" width="3106" height="981"/></clipPath><clipPath id="clip15"><rect x="842" y="60" width="3106" height="981"/></clipPath><clipPath id="clip16"><rect x="842" y="60" width="3106" height="981"/></clipPath><clipPath id="clip17"><rect x="842" y="60" width="3106" height="981"/></clipPath><clipPath id="clip18"><rect x="842" y="60" width="3106" height="981"/></clipPath><clipPath id="clip19"><rect x="842" y="60" width="3106" height="981"/></clipPath><clipPath id="clip20"><rect x="842" y="60" width="3106" height="981"/></clipPath><clipPath id="clip21"><rect x="842" y="60" width="3106" height="981"/></clipPath><clipPath id="clip22"><rect x="842" y="60" width="3106" height="981"/></clipPath><clipPath id="clip23"><rect x="842" y="60" width="3106" height="981"/></clipPath><clipPath id="clip24"><rect x="842" y="60" width="3106" height="981"/></clipPath><clipPath id="clip25"><rect x="842" y="60" width="3106" height="981"/></clipPath><clipPath id="clip26"><rect x="842" y="60" width="3106" height="981"/></clipPath></defs><g clip-path="url(#clip0)" transform="translate(-841 -60)"><rect x="842" y="60.9998" width="3106" height="981" fill="#FFFFFF"/><g clip-path="url(#clip1)"><path d="M972.5 856.528 3897.5 856.528M972.5 778.526 3897.5 778.526M972.5 700.523 3897.5 700.523M972.5 621.521 3897.5 621.521M972.5 543.518 3897.5 543.518M972.5 465.515 3897.5 465.515M972.5 387.513 3897.5 387.513M972.5 308.51 3897.5 308.51M972.5 230.5 3897.5 230.5" stroke="#D9D9D9" stroke-width="3.4375" stroke-linejoin="round" stroke-miterlimit="10" fill="none"/></g><g clip-path="url(#clip2)"><path d="M972.5 935.5 3897.5 935.5" stroke="#D9D9D9" stroke-width="3.4375" stroke-linejoin="round" stroke-miterlimit="10" fill="none" fill-rule="evenodd"/></g><g clip-path="url(#clip3)"><path d="M1106 336.011 1372.05 407 1638.05 387.013 1904.06 387.013 2169.07 250 2435.08 395.013 2701.09 368.012 2967.1 332.011 3233.11 340.011 3499.11 313.01 3765 332.011" stroke="#FFFFFF" stroke-width="10.3125" stroke-linecap="round" stroke-linejoin="round" stroke-miterlimit="10" fill="none"/></g><g clip-path="url(#clip4)"><path d="M1127.69 336.5C1127.69 348.926 1117.61 358.999 1105.19 358.999 1092.76 358.999 1082.69 348.926 1082.69 336.5 1082.69 324.074 1092.76 314 1105.19 314 1117.61 314 1127.69 324.074 1127.69 336.5Z" stroke="#4472C4" stroke-width="4.58333" stroke-linejoin="round" stroke-miterlimit="10" fill="#4472C4"/><path d="M1393.69 406.5C1393.69 418.926 1383.61 428.999 1371.19 428.999 1358.76 428.999 1348.69 418.926 1348.69 406.5 1348.69 394.074 1358.76 384 1371.19 384 1383.61 384 1393.69 394.074 1393.69 406.5Z" stroke="#4472C4" stroke-width="4.58333" stroke-linejoin="round" stroke-miterlimit="10" fill="#4472C4"/><path d="M1659.69 387.5C1659.69 399.926 1649.61 409.999 1637.19 409.999 1624.76 409.999 1614.69 399.926 1614.69 387.5 1614.69 375.073 1624.76 365 1637.19 365 1649.61 365 1659.69 375.073 1659.69 387.5Z" stroke="#4472C4" stroke-width="4.58333" stroke-linejoin="round" stroke-miterlimit="10" fill="#4472C4"/><path d="M1925.69 387.5C1925.69 399.926 1915.61 409.999 1903.19 409.999 1890.76 409.999 1880.69 399.926 1880.69 387.5 1880.69 375.073 1890.76 365 1903.19 365 1915.61 365 1925.69 375.073 1925.69 387.5Z" stroke="#4472C4" stroke-width="4.58333" stroke-linejoin="round" stroke-miterlimit="10" fill="#4472C4"/><path d="M2191.69 250.5C2191.69 262.926 2181.61 272.999 2169.19 272.999 2156.76 272.999 2146.69 262.926 2146.69 250.5 2146.69 238.074 2156.76 228 2169.19 228 2181.61 228 2191.69 238.074 2191.69 250.5Z" stroke="#4472C4" stroke-width="4.58333" stroke-linejoin="round" stroke-miterlimit="10" fill="#4472C4"/><path d="M2457.69 394.5C2457.69 406.926 2447.61 416.999 2435.19 416.999 2422.76 416.999 2412.69 406.926 2412.69 394.5 2412.69 382.074 2422.76 372 2435.19 372 2447.61 372 2457.69 382.074 2457.69 394.5Z" stroke="#4472C4" stroke-width="4.58333" stroke-linejoin="round" stroke-miterlimit="10" fill="#4472C4"/><path d="M2723.69 367.5C2723.69 379.926 2713.61 389.999 2701.19 389.999 2688.76 389.999 2678.69 379.926 2678.69 367.5 2678.69 355.073 2688.76 345 2701.19 345 2713.61 345 2723.69 355.073 2723.69 367.5Z" stroke="#4472C4" stroke-width="4.58333" stroke-linejoin="round" stroke-miterlimit="10" fill="#4472C4"/><path d="M2989.69 332.5C2989.69 344.926 2979.61 354.999 2967.19 354.999 2954.76 354.999 2944.69 344.926 2944.69 332.5 2944.69 320.073 2954.76 310 2967.19 310 2979.61 310 2989.69 320.073 2989.69 332.5Z" stroke="#4472C4" stroke-width="4.58333" stroke-linejoin="round" stroke-miterlimit="10" fill="#4472C4"/><path d="M3255.69 340.5C3255.69 352.926 3245.61 362.999 3233.19 362.999 3220.76 362.999 3210.69 352.926 3210.69 340.5 3210.69 328.074 3220.76 318 3233.19 318 3245.61 318 3255.69 328.074 3255.69 340.5Z" stroke="#4472C4" stroke-width="4.58333" stroke-linejoin="round" stroke-miterlimit="10" fill="#4472C4"/><path d="M3521.69 312.5C3521.69 324.926 3511.61 334.999 3499.19 334.999 3486.76 334.999 3476.69 324.926 3476.69 312.5 3476.69 300.073 3486.76 290 3499.19 290 3511.61 290 3521.69 300.073 3521.69 312.5Z" stroke="#4472C4" stroke-width="4.58333" stroke-linejoin="round" stroke-miterlimit="10" fill="#4472C4"/><path d="M3786.69 332.5C3786.69 344.926 3776.61 354.999 3764.19 354.999 3751.76 354.999 3741.69 344.926 3741.69 332.5 3741.69 320.073 3751.76 310 3764.19 310 3776.61 310 3786.69 320.073 3786.69 332.5Z" stroke="#4472C4" stroke-width="4.58333" stroke-linejoin="round" stroke-miterlimit="10" fill="#4472C4"/></g><g clip-path="url(#clip5)"><text fill="#595959" font-family="Calibri,Calibri_MSFontService,sans-serif" font-weight="400" font-size="41" transform="matrix(1 0 0 1 913.779 947)">0</text></g><g clip-path="url(#clip6)"><text fill="#595959" font-family="Calibri,Calibri_MSFontService,sans-serif" font-weight="400" font-size="41" transform="matrix(1 0 0 1 892.879 868)">20</text></g><g clip-path="url(#clip7)"><text fill="#595959" font-family="Calibri,Calibri_MSFontService,sans-serif" font-weight="400" font-size="41" transform="matrix(1 0 0 1 892.879 790)">40</text></g><g clip-path="url(#clip8)"><text fill="#595959" font-family="Calibri,Calibri_MSFontService,sans-serif" font-weight="400" font-size="41" transform="matrix(1 0 0 1 892.879 712)">60</text></g><g clip-path="url(#clip9)"><text fill="#595959" font-family="Calibri,Calibri_MSFontService,sans-serif" font-weight="400" font-size="41" transform="matrix(1 0 0 1 892.879 634)">80</text></g><g clip-path="url(#clip10)"><text fill="#595959" font-family="Calibri,Calibri_MSFontService,sans-serif" font-weight="400" font-size="41" transform="matrix(1 0 0 1 871.979 555)">100</text></g><g clip-path="url(#clip11)"><text fill="#595959" font-family="Calibri,Calibri_MSFontService,sans-serif" font-weight="400" font-size="41" transform="matrix(1 0 0 1 871.979 477)">120</text></g><g clip-path="url(#clip12)"><text fill="#595959" font-family="Calibri,Calibri_MSFontService,sans-serif" font-weight="400" font-size="41" transform="matrix(1 0 0 1 871.979 399)">140</text></g><g clip-path="url(#clip13)"><text fill="#595959" font-family="Calibri,Calibri_MSFontService,sans-serif" font-weight="400" font-size="41" transform="matrix(1 0 0 1 871.979 320)">160</text></g><g clip-path="url(#clip14)"><text fill="#595959" font-family="Calibri,Calibri_MSFontService,sans-serif" font-weight="400" font-size="41" transform="matrix(1 0 0 1 871.979 242)">180</text></g><g clip-path="url(#clip15)"><text fill="#595959" font-family="Calibri,Calibri_MSFontService,sans-serif" font-weight="400" font-size="41" transform="matrix(1 0 0 1 1073.59 1000)">Luis</text></g><g clip-path="url(#clip16)"><text fill="#595959" font-family="Calibri,Calibri_MSFontService,sans-serif" font-weight="400" font-size="41" transform="matrix(1 0 0 1 1339.15 1000)">Ana</text></g><g clip-path="url(#clip17)"><text fill="#595959" font-family="Calibri,Calibri_MSFontService,sans-serif" font-weight="400" font-size="41" transform="matrix(1 0 0 1 1602.47 1000)">Iván</text></g><g clip-path="url(#clip18)"><text fill="#595959" font-family="Calibri,Calibri_MSFontService,sans-serif" font-weight="400" font-size="41" transform="matrix(1 0 0 1 1860.77 1000)">Lucía</text></g><g clip-path="url(#clip19)"><text fill="#595959" font-family="Calibri,Calibri_MSFontService,sans-serif" font-weight="400" font-size="41" transform="matrix(1 0 0 1 2113.21 1000)">Jessica</text></g><g clip-path="url(#clip20)"><text fill="#595959" font-family="Calibri,Calibri_MSFontService,sans-serif" font-weight="400" font-size="41" transform="matrix(1 0 0 1 2368.41 1000)">Antonio</text></g><g clip-path="url(#clip21)"><text fill="#595959" font-family="Calibri,Calibri_MSFontService,sans-serif" font-weight="400" font-size="41" transform="matrix(1 0 0 1 2654.59 1000)">Mikel</text></g><g clip-path="url(#clip22)"><text fill="#595959" font-family="Calibri,Calibri_MSFontService,sans-serif" font-weight="400" font-size="41" transform="matrix(1 0 0 1 2915.74 1000)">Marta</text></g><g clip-path="url(#clip23)"><text fill="#595959" font-family="Calibri,Calibri_MSFontService,sans-serif" font-weight="400" font-size="41" transform="matrix(1 0 0 1 3167.48 1000)">Carmen</text></g><g clip-path="url(#clip24)"><text fill="#595959" font-family="Calibri,Calibri_MSFontService,sans-serif" font-weight="400" font-size="41" transform="matrix(1 0 0 1 3451.07 1000)">Javier</text></g><g clip-path="url(#clip25)"><text fill="#595959" font-family="Calibri,Calibri_MSFontService,sans-serif" font-weight="400" font-size="41" transform="matrix(1 0 0 1 3715.63 1000)">María</text></g><g clip-path="url(#clip26)"><text fill="#595959" font-family="Calibri,Calibri_MSFontService,sans-serif" font-weight="400" font-size="64" transform="matrix(1 0 0 1 2253.11 156)">altura (cm)</text></g><rect x="842.5" y="61.5" width="3106" height="981" stroke="#D9D9D9" stroke-width="3.4375" stroke-linejoin="round" stroke-miterlimit="10" fill="none"/></g></svg>