<?xml version="1.0" encoding="UTF-8" standalone="no"?>
<svg xmlns="http://www.w3.org/2000/svg" version="1.1" width="1000" height="900">
	<path d="m500 0a500 450 0 0 0 -500 450 500 450 0 0 0 500 450 500 450 0 0 0 395 -174h-75a423 423 0 0 1 -320 147 423 423 0 0 1 -291 -116 85 85 0 0 1 -26 -61v-220a13 13 0 0 1 13 -13h804v-13a500 450 0 0 0 -500 -450zm0 27a423 423 0 0 1 291 116 85 85 0 0 1 26 61v221a13 13 0 0 1 -13 13h-608a13 13 0 0 1 -13 -13v-221a85 85 0 0 1 26 -61 423 423 0 0 1 291 -116z"/>
</svg>
