<svg width="96" height="96" xmlns="http://www.w3.org/2000/svg" xmlns:xlink="http://www.w3.org/1999/xlink" xml:space="preserve" overflow="hidden"><defs><clipPath id="clip0"><rect x="347" y="120" width="96" height="96"/></clipPath></defs><g clip-path="url(#clip0)" transform="translate(-347 -120)"><path d="M432.128 167.792 432.113 167.792C431.429 167.798 430.555 167.82 429.53 167.874L429.16 163.916C429.16 163.916 428.791 163.889 428.103 163.889 427.411 163.889 426.373 163.925 425.087 164.035L424.515 157.41C423.246 157.22 421.964 157.133 420.681 157.149 411.041 157.165 401.831 161.142 395.209 168.149L394.791 168.149C388.17 161.143 378.96 157.165 369.319 157.149 368.036 157.133 366.754 157.22 365.485 157.41L364.914 164.035C363.627 163.925 362.589 163.889 361.898 163.889 361.21 163.889 360.841 163.916 360.841 163.916L360.47 167.873C359.446 167.819 358.572 167.797 357.888 167.792L357.873 167.792C356.889 167.792 356.068 168.541 355.977 169.52L353.103 200.557C353.002 201.606 353.771 202.538 354.819 202.638 354.879 202.644 354.94 202.647 355 202.647 355.021 202.647 355.042 202.647 355.062 202.646 355.642 202.628 356.325 202.615 357.101 202.615 364.102 202.615 378.565 203.682 390.539 211.505 391.166 211.921 391.901 212.145 392.653 212.15L397.398 212.15C398.12 212.146 398.826 211.939 399.437 211.554 412.061 203.687 426.253 202.615 433.05 202.615 433.763 202.615 434.395 202.627 434.935 202.644L434.989 202.645C436.045 202.647 436.904 201.793 436.906 200.737 436.906 200.676 436.903 200.615 436.898 200.555L434.023 169.52C433.932 168.541 433.111 167.792 432.128 167.792ZM391.632 209.83C379.358 201.812 364.729 200.615 357.1 200.615 356.421 200.615 355.749 200.625 355.103 200.644L357.961 169.793C358.563 169.799 359.349 169.819 360.283 169.868L357.607 198.459C357.607 198.459 357.93 198.443 358.527 198.443 362.434 198.443 378.077 199.148 391.673 209.763 391.767 209.836 391.967 209.963 391.954 209.984 391.839 209.952 391.729 209.9 391.632 209.83ZM393.984 209.055C380.895 198.248 365.788 196.643 359.803 196.462L362.664 165.9C363.231 165.915 363.934 165.953 364.742 166.022L362.376 193.445C362.376 193.445 380.835 195.689 394 208.769L394 209.047C394 209.059 393.993 209.062 393.984 209.055ZM393.984 206.006C383.062 195.999 369.499 192.681 364.529 191.765L367.337 159.218C367.875 159.179 368.544 159.15 369.319 159.15 378.514 159.164 387.289 162.996 393.548 169.732L394 170.209 394 205.999C394 206.011 393.992 206.014 393.983 206.006ZM396 170.21 396.452 169.732C402.711 162.996 411.487 159.163 420.681 159.149 421.457 159.149 422.125 159.179 422.664 159.217L425.472 191.765C420.502 192.681 406.938 195.999 396.017 206.006 396.008 206.014 396 206.011 396 205.999ZM396 209.048 396 208.77C409.165 195.689 427.625 193.446 427.625 193.446L425.258 166.022C426.066 165.953 426.77 165.915 427.337 165.9L430.198 196.462C424.212 196.642 409.106 198.248 396.016 209.055 396.007 209.062 396 209.059 396 209.047ZM433.049 200.615C425.639 200.615 411.282 201.815 398.378 209.857 398.253 209.942 398.115 210.007 397.969 210.047 397.947 210.013 398.191 209.868 398.301 209.781 411.904 199.147 427.565 198.443 431.473 198.443 432.07 198.443 432.393 198.46 432.393 198.46L429.717 169.868C430.651 169.819 431.437 169.798 432.04 169.793L434.897 200.641C434.362 200.626 433.742 200.615 433.049 200.615Z"/><path d="M420.914 134.149C421.663 131.514 423.509 129.328 425.982 128.148 423.51 126.968 421.664 124.784 420.914 122.149 420.165 124.785 418.319 126.97 415.845 128.148 418.319 129.326 420.167 131.513 420.914 134.149ZM420.915 126.522C421.35 127.11 421.842 127.654 422.382 128.148 421.842 128.642 421.35 129.186 420.915 129.774 420.479 129.186 419.988 128.641 419.448 128.148 419.988 127.655 420.479 127.11 420.915 126.522Z"/><path d="M356.931 156.149C357.681 153.514 359.527 151.327 362 150.148 359.528 148.969 357.682 146.784 356.931 144.149 356.183 146.785 354.336 148.971 351.862 150.148 354.337 151.326 356.184 153.513 356.931 156.149ZM356.932 148.523C357.368 149.11 357.859 149.654 358.399 150.148 357.859 150.642 357.368 151.186 356.932 151.774 356.497 151.186 356.006 150.641 355.466 150.148 356.006 149.654 356.497 149.11 356.932 148.523Z"/><path d="M366.776 134.149C367.401 131.953 368.939 130.131 371 129.148 368.94 128.165 367.401 126.345 366.776 124.149 366.152 126.346 364.613 128.167 362.552 129.148 364.614 130.13 366.153 131.952 366.776 134.149ZM366.777 128.337C367.008 128.621 367.254 128.892 367.515 129.148 367.254 129.405 367.008 129.676 366.777 129.96 366.546 129.676 366.3 129.405 366.039 129.148 366.3 128.892 366.546 128.621 366.777 128.337Z"/><path d="M432.776 150.149C433.401 147.953 434.939 146.131 437 145.148 434.94 144.165 433.401 142.345 432.776 140.149 432.152 142.346 430.613 144.167 428.552 145.148 430.614 146.13 432.153 147.952 432.776 150.149ZM432.777 144.337C433.008 144.621 433.254 144.892 433.515 145.148 433.254 145.405 433.008 145.676 432.777 145.96 432.546 145.676 432.3 145.405 432.039 145.148 432.3 144.892 432.546 144.621 432.777 144.337Z"/><path d="M395 129.149C395.552 129.149 396 128.702 396 128.149L396 124.149C396 123.597 395.552 123.149 395 123.149 394.448 123.149 394 123.597 394 124.149L394 128.149C394 128.702 394.448 129.149 395 129.149Z"/><path d="M395 159.149C395.552 159.149 396 158.702 396 158.149L396 148.149C396 147.597 395.552 147.149 395 147.149 394.448 147.149 394 147.597 394 148.149L394 158.149C394 158.702 394.448 159.149 395 159.149Z"/><path d="M395 143.149C395.552 143.149 396 142.702 396 142.149L396 134.149C396 133.597 395.552 133.149 395 133.149 394.448 133.149 394 133.597 394 134.149L394 142.149C394 142.702 394.448 143.149 395 143.149Z"/><path d="M408.761 138.446C409.3 138.564 409.833 138.222 409.951 137.682 409.951 137.682 409.951 137.682 409.951 137.682L411.227 131.819C411.344 131.279 411.002 130.746 410.462 130.628 409.922 130.511 409.389 130.853 409.271 131.393L407.996 137.256C407.879 137.796 408.221 138.329 408.761 138.446Z"/><path d="M405.788 152.127C406.327 152.244 406.859 151.903 406.977 151.364 406.977 151.363 406.977 151.363 406.978 151.362L408.677 143.544C408.794 143.005 408.452 142.472 407.912 142.354 407.372 142.237 406.839 142.58 406.722 143.12L405.022 150.937C404.905 151.477 405.248 152.009 405.787 152.126 405.788 152.127 405.788 152.127 405.788 152.127Z"/><path d="M415.999 150.149C416.328 150.15 416.636 149.988 416.823 149.718L423.643 139.844C423.957 139.39 423.843 138.767 423.388 138.453 422.934 138.139 422.311 138.253 421.997 138.708L415.177 148.581C414.863 149.035 414.977 149.658 415.431 149.972 415.598 150.087 415.796 150.149 415.999 150.149Z"/><path d="M380.898 141.59 383.022 151.362C383.14 151.902 383.672 152.244 384.212 152.127 384.752 152.009 385.095 151.477 384.978 150.937L382.854 141.165C382.736 140.625 382.203 140.283 381.664 140.4 381.124 140.517 380.781 141.05 380.898 141.59Z"/><path d="M379.624 135.727C379.741 136.267 380.274 136.61 380.814 136.492 381.354 136.375 381.697 135.842 381.579 135.302L380.729 131.393C380.611 130.853 380.078 130.511 379.538 130.628 378.998 130.746 378.656 131.279 378.773 131.819Z"/><path d="M366.611 138.453C366.157 138.767 366.043 139.39 366.356 139.844L373.176 149.718C373.49 150.172 374.113 150.286 374.568 149.973 375.023 149.659 375.137 149.036 374.823 148.581L368.003 138.708C367.689 138.253 367.066 138.139 366.612 138.453 366.612 138.453 366.611 138.453 366.611 138.453Z"/></g></svg>