<?xml version="1.0" encoding="UTF-8" standalone="no"?>
<!-- Created with Inkscape (http://www.inkscape.org/) -->

<svg
   width="227.55545mm"
   height="34.576351mm"
   viewBox="0 0 227.55545 34.576352"
   version="1.1"
   id="svg5"
   xml:space="preserve"
   inkscape:version="1.2.1 (9c6d41e410, 2022-07-14)"
   sodipodi:docname="media-balanza.svg"
   xmlns:inkscape="http://www.inkscape.org/namespaces/inkscape"
   xmlns:sodipodi="http://sodipodi.sourceforge.net/DTD/sodipodi-0.dtd"
   xmlns="http://www.w3.org/2000/svg"
   xmlns:svg="http://www.w3.org/2000/svg"><sodipodi:namedview
     id="namedview7"
     pagecolor="#ffffff"
     bordercolor="#666666"
     borderopacity="1.0"
     inkscape:showpageshadow="2"
     inkscape:pageopacity="0.0"
     inkscape:pagecheckerboard="0"
     inkscape:deskcolor="#d1d1d1"
     inkscape:document-units="mm"
     showgrid="false"
     inkscape:zoom="0.76969697"
     inkscape:cx="313.75984"
     inkscape:cy="-150.05906"
     inkscape:window-width="1600"
     inkscape:window-height="1251"
     inkscape:window-x="2391"
     inkscape:window-y="-9"
     inkscape:window-maximized="1"
     inkscape:current-layer="layer1" /><defs
     id="defs2"><clipPath
       id="clip1"><path
         d="M 5.480469,5.480469 H 650.52344 V 436.11328 H 5.480469 Z m 0,0"
         id="path1293" /></clipPath><clipPath
       id="clip2"><path
         d="M 5.480469,389 H 650.52344 v 5 H 5.480469 Z m 0,0"
         id="path1296" /></clipPath></defs><g
     inkscape:label="Capa 1"
     inkscape:groupmode="layer"
     id="layer1"
     transform="translate(-22.003526,-188.19051)"><path
       style="fill:#8a1919;fill-opacity:1;fill-rule:nonzero;stroke:#8a1919;stroke-width:0.264583;stroke-linecap:butt;stroke-linejoin:round;stroke-miterlimit:10;stroke-opacity:1"
       d="m 39.019541,205.00533 c 0,1.84244 -1.493793,3.33623 -3.33623,3.33623 -1.842437,0 -3.336231,-1.49379 -3.336231,-3.33623 0,-1.84244 1.493794,-3.33623 3.336231,-3.33623 1.842437,0 3.33623,1.49379 3.33623,3.33623"
       id="path1311" /><path
       style="fill:#8a1919;fill-opacity:1;fill-rule:nonzero;stroke:#8a1919;stroke-width:0.264583;stroke-linecap:butt;stroke-linejoin:round;stroke-miterlimit:10;stroke-opacity:1"
       d="m 53.900976,205.00533 c 0,1.84244 -1.493793,3.33623 -3.336231,3.33623 -1.842437,0 -3.33623,-1.49379 -3.33623,-3.33623 0,-1.84244 1.493793,-3.33623 3.33623,-3.33623 1.842438,0 3.336231,1.49379 3.336231,3.33623"
       id="path1313" /><path
       style="fill:#8a1919;fill-opacity:1;fill-rule:nonzero;stroke:#8a1919;stroke-width:0.264583;stroke-linecap:butt;stroke-linejoin:round;stroke-miterlimit:10;stroke-opacity:1"
       d="m 72.293653,205.00533 c 0,1.84244 -1.493795,3.33623 -3.336233,3.33623 -1.843815,0 -3.337606,-1.49379 -3.337606,-3.33623 0,-1.84244 1.493791,-3.33623 3.337606,-3.33623 1.842438,0 3.336233,1.49379 3.336233,3.33623"
       id="path1315" /><path
       style="fill:#8a1919;fill-opacity:1;fill-rule:nonzero;stroke:#8a1919;stroke-width:0.264583;stroke-linecap:butt;stroke-linejoin:round;stroke-miterlimit:10;stroke-opacity:1"
       d="m 79.492525,205.00533 c 0,1.84244 -1.493795,3.33623 -3.336234,3.33623 -1.842435,0 -3.33623,-1.49379 -3.33623,-3.33623 0,-1.84244 1.493795,-3.33623 3.33623,-3.33623 1.842439,0 3.336234,1.49379 3.336234,3.33623"
       id="path1317" /><path
       style="fill:#8a1919;fill-opacity:1;fill-rule:nonzero;stroke:#8a1919;stroke-width:0.264583;stroke-linecap:butt;stroke-linejoin:round;stroke-miterlimit:10;stroke-opacity:1"
       d="m 86.80577,205.00533 c 0,1.84244 -1.493791,3.33623 -3.33623,3.33623 -1.842435,0 -3.33623,-1.49379 -3.33623,-3.33623 0,-1.84244 1.493795,-3.33623 3.33623,-3.33623 1.842439,0 3.33623,1.49379 3.33623,3.33623"
       id="path1319" /><path
       style="fill:#8a1919;fill-opacity:1;fill-rule:nonzero;stroke:#8a1919;stroke-width:0.264583;stroke-linecap:butt;stroke-linejoin:round;stroke-miterlimit:10;stroke-opacity:1"
       d="m 122.66784,205.00533 c 0,1.84244 -1.4938,3.33623 -3.33761,3.33623 -1.84244,0 -3.33623,-1.49379 -3.33623,-3.33623 0,-1.84244 1.49379,-3.33623 3.33623,-3.33623 1.84381,0 3.33761,1.49379 3.33761,3.33623"
       id="path1321" /><path
       style="fill:#8a1919;fill-opacity:1;fill-rule:nonzero;stroke:#8a1919;stroke-width:0.264583;stroke-linecap:butt;stroke-linejoin:round;stroke-miterlimit:10;stroke-opacity:1"
       d="m 122.66784,198.33149 c 0,1.84381 -1.4938,3.33761 -3.33761,3.33761 -1.84244,0 -3.33623,-1.4938 -3.33623,-3.33761 0,-1.84244 1.49379,-3.33623 3.33623,-3.33623 1.84381,0 3.33761,1.49379 3.33761,3.33623"
       id="path1323" /><path
       style="fill:#8a1919;fill-opacity:1;fill-rule:nonzero;stroke:#8a1919;stroke-width:0.264583;stroke-linecap:butt;stroke-linejoin:round;stroke-miterlimit:10;stroke-opacity:1"
       d="m 122.66784,191.65903 c 0,1.84244 -1.4938,3.33623 -3.33761,3.33623 -1.84244,0 -3.33623,-1.49379 -3.33623,-3.33623 0,-1.84244 1.49379,-3.33623 3.33623,-3.33623 1.84381,0 3.33761,1.49379 3.33761,3.33623"
       id="path1325" /><path
       style="fill:#8a1919;fill-opacity:1;fill-rule:nonzero;stroke:#8a1919;stroke-width:0.264583;stroke-linecap:butt;stroke-linejoin:round;stroke-miterlimit:10;stroke-opacity:1"
       d="m 154.89051,205.00533 c 0,1.84244 -1.4938,3.33623 -3.33623,3.33623 -1.84244,0 -3.33623,-1.49379 -3.33623,-3.33623 0,-1.84244 1.49379,-3.33623 3.33623,-3.33623 1.84243,0 3.33623,1.49379 3.33623,3.33623"
       id="path1327" /><path
       style="fill:#8a1919;fill-opacity:1;fill-rule:nonzero;stroke:#8a1919;stroke-width:0.264583;stroke-linecap:butt;stroke-linejoin:round;stroke-miterlimit:10;stroke-opacity:1"
       d="m 239.21542,205.00533 c 0,1.84244 -1.4938,3.33623 -3.33623,3.33623 -1.84244,0 -3.33623,-1.49379 -3.33623,-3.33623 0,-1.84244 1.49379,-3.33623 3.33623,-3.33623 1.84243,0 3.33623,1.49379 3.33623,3.33623"
       id="path1329" /><g
       clip-path="url(#clip2)"
       clip-rule="nonzero"
       id="g1333"
       transform="matrix(0.35277778,0,0,0.35277778,20.070138,71.62639)"><path
         style="fill:none;stroke:#000000;stroke-width:4.26791;stroke-linecap:butt;stroke-linejoin:round;stroke-miterlimit:10;stroke-opacity:1"
         d="M 5.480469,391.16406 H 650.51953"
         id="path1331" /></g><path
       style="fill:#0f4c8a;fill-opacity:1;fill-rule:nonzero;stroke:none;stroke-width:0.352778"
       d="m 105.89022,210.18262 7.26502,12.58424 H 98.623826 Z m 0,0"
       id="path1335" /><path
       style="fill:#0f4c8a;fill-opacity:1;fill-rule:nonzero;stroke:none;stroke-width:0.352778"
       d="m 105.89022,210.18262 7.26502,12.58424 H 98.623826 Z m 0,0"
       id="path1337" /><path
       style="fill:#0f4c8a;fill-opacity:1;fill-rule:nonzero;stroke:none;stroke-width:0.352778"
       d="m 105.89022,210.18262 7.26502,12.58424 H 98.623826 Z m 0,0"
       id="path1339" /><path
       style="fill:#0f4c8a;fill-opacity:1;fill-rule:nonzero;stroke:none;stroke-width:0.352778"
       d="m 105.89022,210.18262 7.26502,12.58424 H 98.623826 Z m 0,0"
       id="path1341" /><path
       style="fill:#0f4c8a;fill-opacity:1;fill-rule:nonzero;stroke:none;stroke-width:0.352778"
       d="m 105.89022,210.18262 7.26502,12.58424 H 98.623826 Z m 0,0"
       id="path1343" /><path
       style="fill:#0f4c8a;fill-opacity:1;fill-rule:nonzero;stroke:none;stroke-width:0.352778"
       d="m 105.89022,210.18262 7.26502,12.58424 H 98.623826 Z m 0,0"
       id="path1345" /><path
       style="fill:#0f4c8a;fill-opacity:1;fill-rule:nonzero;stroke:none;stroke-width:0.352778"
       d="m 105.89022,210.18262 7.26502,12.58424 H 98.623826 Z m 0,0"
       id="path1347" /><path
       style="fill:#0f4c8a;fill-opacity:1;fill-rule:nonzero;stroke:none;stroke-width:0.352778"
       d="m 105.89022,210.18262 7.26502,12.58424 H 98.623826 Z m 0,0"
       id="path1349" /><path
       style="fill:#0f4c8a;fill-opacity:1;fill-rule:nonzero;stroke:none;stroke-width:0.352778"
       d="m 105.89022,210.18262 7.26502,12.58424 H 98.623826 Z m 0,0"
       id="path1351" /><path
       style="fill:#0f4c8a;fill-opacity:1;fill-rule:nonzero;stroke:none;stroke-width:0.352778"
       d="m 105.89022,210.18262 7.26502,12.58424 H 98.623826 Z m 0,0"
       id="path1353" /></g></svg>
