<?xml version="1.0" encoding="UTF-8" standalone="no"?>
<!-- Created with Inkscape (http://www.inkscape.org/) -->

<svg
   width="180.11798mm"
   height="79.631134mm"
   viewBox="0 0 180.11798 79.631134"
   version="1.1"
   id="svg1"
   inkscape:version="1.4.2 (f4327f4, 2025-05-13)"
   sodipodi:docname="precision.svg"
   inkscape:export-filename="precision.png"
   inkscape:export-xdpi="96"
   inkscape:export-ydpi="96"
   xmlns:inkscape="http://www.inkscape.org/namespaces/inkscape"
   xmlns:sodipodi="http://sodipodi.sourceforge.net/DTD/sodipodi-0.dtd"
   xmlns="http://www.w3.org/2000/svg"
   xmlns:svg="http://www.w3.org/2000/svg">
  <sodipodi:namedview
     id="namedview1"
     pagecolor="#ffffff"
     bordercolor="#000000"
     borderopacity="0.25"
     inkscape:showpageshadow="2"
     inkscape:pageopacity="0.0"
     inkscape:pagecheckerboard="0"
     inkscape:deskcolor="#d1d1d1"
     inkscape:document-units="mm"
     inkscape:zoom="0.76167929"
     inkscape:cx="350.54123"
     inkscape:cy="521.87319"
     inkscape:window-width="1920"
     inkscape:window-height="1057"
     inkscape:window-x="-8"
     inkscape:window-y="-8"
     inkscape:window-maximized="1"
     inkscape:current-layer="layer1" />
  <defs
     id="defs1" />
  <g
     inkscape:label="Capa 1"
     inkscape:groupmode="layer"
     id="layer1"
     transform="translate(-11.998683,-10.459648)">
    <g
       id="g3"
       transform="translate(-21.45433,-1.4511205)">
      <path
         d="m 112.82801,51.854415 c 0,21.9075 -17.779998,39.68749 -39.687498,39.68749 -21.907499,0 -39.687499,-17.77999 -39.687499,-39.68749 0,-21.907504 17.78,-39.687504 39.687499,-39.687504 21.9075,0 39.687498,17.78 39.687498,39.687504 z"
         style="fill:#ff0000;stroke-width:0.264583"
         id="path3" />
      <g
         id="g5"
         transform="matrix(0.26458333,0,0,0.26458333,33.453013,12.166911)">
        <path
           d="M 24.8,150 C 24.8,219 81,275.2 150,275.2 219,275.2 275.2,219 275.2,150 275.2,81 219,24.8 150,24.8 81,24.8 24.8,81 24.8,150 Z"
           style="fill:#ff0000"
           id="path7" />
        <path
           d="m 150,18.9 c -17.7,0 -34.9,3.5 -51,10.3 -7.8,3.3 -15.3,7.4 -22.3,12.1 -6.9,4.7 -13.5,10.1 -19.4,16 -5.9,5.9 -11.3,12.5 -16,19.4 -4.7,7 -8.8,14.5 -12.1,22.3 -6.8,16.2 -10.3,33.3 -10.3,51 0,17.7 3.5,34.9 10.3,51 3.3,7.8 7.4,15.3 12.1,22.3 4.7,6.9 10.1,13.5 16,19.4 5.9,5.9 12.5,11.3 19.4,16 7,4.7 14.5,8.8 22.3,12.1 16.2,6.8 33.3,10.3 51,10.3 17.7,0 34.9,-3.5 51,-10.3 7.8,-3.3 15.3,-7.4 22.3,-12.1 6.9,-4.7 13.5,-10.1 19.4,-16 5.9,-5.9 11.3,-12.5 16,-19.4 4.7,-7 8.8,-14.5 12.1,-22.3 6.8,-16.2 10.3,-33.3 10.3,-51 0,-17.7 -3.5,-34.9 -10.3,-51 C 267.5,91.2 263.4,83.7 258.7,76.7 254,69.8 248.6,63.2 242.7,57.3 236.8,51.4 230.2,46 223.3,41.3 216.3,36.6 208.8,32.5 201,29.2 184.9,22.4 167.7,18.9 150,18.9 Z M 30.7,150 C 30.7,84.1 84.1,30.7 150,30.7 c 65.9,0 119.3,53.4 119.3,119.3 v 0 0 C 269.3,215.9 215.9,269.3 150,269.3 84.1,269.3 30.7,215.9 30.7,150 Z"
           style="fill:#ffffff"
           id="path9" />
      </g>
      <g
         id="g11"
         transform="matrix(0.26458333,0,0,0.26458333,33.453013,12.166911)">
        <path
           d="m 55.5,150 c 0,52.1 42.4,94.5 94.5,94.5 52.1,0 94.5,-42.4 94.5,-94.5 0,-52.1 -42.4,-94.5 -94.5,-94.5 -52.1,0 -94.5,42.4 -94.5,94.5 z"
           style="fill:#ff0000"
           id="path13" />
        <path
           d="m 150,49.6 c -13.5,0 -26.7,2.7 -39.1,7.9 C 99,62.6 88.2,69.8 79,79 c -9.2,9.2 -16.5,20 -21.5,31.9 -5.2,12.4 -7.9,25.5 -7.9,39.1 0,13.5 2.7,26.7 7.9,39.1 5.1,12 12.3,22.7 21.5,31.9 9.2,9.2 20,16.5 31.9,21.5 12.4,5.2 25.5,7.9 39.1,7.9 13.5,0 26.7,-2.7 39.1,-7.9 12,-5.1 22.7,-12.3 31.9,-21.5 9.2,-9.2 16.5,-20 21.5,-31.9 5.2,-12.4 7.9,-25.5 7.9,-39.1 0,-13.5 -2.7,-26.7 -7.9,-39.1 C 237.4,99 230.2,88.2 221,79 211.8,69.8 201,62.5 189.1,57.5 176.7,52.3 163.5,49.6 150,49.6 Z M 61.4,150 c 0,-48.9 39.7,-88.6 88.6,-88.6 48.9,0 88.6,39.7 88.6,88.6 v 0 0 c 0,48.9 -39.7,88.6 -88.6,88.6 -48.9,0 -88.6,-39.7 -88.6,-88.6 z"
           style="fill:#ffffff"
           id="path15" />
      </g>
      <g
         id="g17"
         transform="matrix(0.26458333,0,0,0.26458333,33.453013,12.166911)">
        <path
           d="m 85.8,150 c 0,17.1 6.7,33.3 18.8,45.4 12.1,12.1 28.2,18.8 45.4,18.8 17.2,0 33.3,-6.7 45.4,-18.8 12.1,-12.1 18.8,-28.2 18.8,-45.4 0,-35.4 -28.8,-64.2 -64.2,-64.2 -35.4,0 -64.2,28.8 -64.2,64.2 z"
           style="fill:#ff0000"
           id="path19" />
        <path
           d="m 150,79.9 c -9.5,0 -18.6,1.9 -27.3,5.5 -8.3,3.5 -15.8,8.6 -22.3,15 -6.4,6.4 -11.5,13.9 -15,22.3 -3.7,8.6 -5.5,17.8 -5.5,27.3 0,9.5 1.9,18.6 5.5,27.3 3.5,8.3 8.6,15.8 15,22.3 6.4,6.4 13.9,11.5 22.3,15 8.6,3.7 17.8,5.5 27.3,5.5 9.5,0 18.6,-1.9 27.3,-5.5 8.3,-3.5 15.8,-8.6 22.3,-15 6.5,-6.4 11.5,-13.9 15,-22.3 3.7,-8.6 5.5,-17.8 5.5,-27.3 0,-9.5 -1.9,-18.6 -5.5,-27.3 -3.5,-8.3 -8.6,-15.8 -15,-22.3 C 193.2,94 185.7,88.9 177.3,85.4 168.6,81.8 159.5,79.9 150,79.9 Z M 91.7,150 c 0,-32.2 26.1,-58.3 58.3,-58.3 32.2,0 58.3,26.1 58.3,58.3 v 0 0 c 0,32.2 -26.1,58.3 -58.3,58.3 -32.2,0 -58.3,-26.1 -58.3,-58.3 z"
           style="fill:#ffffff"
           id="path21" />
      </g>
      <g
         id="g1">
        <circle
           cx="49.830719"
           cy="58.786491"
           r="2.1960416"
           id="circle23"
           style="stroke-width:0.264583" />
        <circle
           cx="46.338219"
           cy="62.966911"
           r="2.1960416"
           id="circle25"
           style="stroke-width:0.264583" />
        <circle
           cx="50.465721"
           cy="70.084198"
           r="2.1960416"
           id="circle27"
           style="stroke-width:0.264583" />
        <circle
           cx="50.279499"
           cy="65.93705"
           r="2.1960416"
           id="circle27-5"
           style="stroke-width:0.264583" />
        <circle
           cx="53.799469"
           cy="65.215866"
           r="2.1960416"
           id="circle29"
           style="stroke-width:0.264583" />
        <circle
           cx="51.66246"
           cy="62.65852"
           r="2.1960416"
           id="circle27-1"
           style="stroke-width:0.264583" />
      </g>
    </g>
    <g
       id="g6"
       transform="translate(-10.313193,-86.637135)">
      <path
         style="fill:#ff0000;stroke-width:0.264583"
         d="m 202.42986,136.78428 c 0,21.9075 -17.78,39.6875 -39.6875,39.6875 -21.9075,0 -39.6875,-17.78 -39.6875,-39.6875 0,-21.9075 17.78,-39.687497 39.6875,-39.687497 21.9075,0 39.6875,17.779997 39.6875,39.687497 z"
         id="path2603" />
      <g
         id="g2609"
         transform="matrix(0.26458333,0,0,0.26458333,123.05486,97.096783)">
        <path
           style="fill:#ff0000"
           d="M 24.8,150 C 24.8,219 81,275.2 150,275.2 219,275.2 275.2,219 275.2,150 275.2,81 219,24.8 150,24.8 81,24.8 24.8,81 24.8,150 Z"
           id="path2605" />
        <path
           style="fill:#ffffff"
           d="m 150,18.9 c -17.7,0 -34.9,3.5 -51,10.3 -7.8,3.3 -15.3,7.4 -22.3,12.1 -6.9,4.7 -13.5,10.1 -19.4,16 -5.9,5.9 -11.3,12.5 -16,19.4 -4.7,7 -8.8,14.5 -12.1,22.3 -6.8,16.2 -10.3,33.3 -10.3,51 0,17.7 3.5,34.9 10.3,51 3.3,7.8 7.4,15.3 12.1,22.3 4.7,6.9 10.1,13.5 16,19.4 5.9,5.9 12.5,11.3 19.4,16 7,4.7 14.5,8.8 22.3,12.1 16.2,6.8 33.3,10.3 51,10.3 17.7,0 34.9,-3.5 51,-10.3 7.8,-3.3 15.3,-7.4 22.3,-12.1 6.9,-4.7 13.5,-10.1 19.4,-16 5.9,-5.9 11.3,-12.5 16,-19.4 4.7,-7 8.8,-14.5 12.1,-22.3 6.8,-16.2 10.3,-33.3 10.3,-51 0,-17.7 -3.5,-34.9 -10.3,-51 C 267.5,91.2 263.4,83.7 258.7,76.7 254,69.8 248.6,63.2 242.7,57.3 236.8,51.4 230.2,46 223.3,41.3 216.3,36.6 208.8,32.5 201,29.2 184.9,22.4 167.7,18.9 150,18.9 Z M 30.7,150 C 30.7,84.1 84.1,30.7 150,30.7 c 65.9,0 119.3,53.4 119.3,119.3 v 0 0 C 269.3,215.9 215.9,269.3 150,269.3 84.1,269.3 30.7,215.9 30.7,150 Z"
           id="path2607" />
      </g>
      <g
         id="g2615"
         transform="matrix(0.26458333,0,0,0.26458333,123.05486,97.096783)">
        <path
           style="fill:#ff0000"
           d="m 55.5,150 c 0,52.1 42.4,94.5 94.5,94.5 52.1,0 94.5,-42.4 94.5,-94.5 0,-52.1 -42.4,-94.5 -94.5,-94.5 -52.1,0 -94.5,42.4 -94.5,94.5 z"
           id="path2611" />
        <path
           style="fill:#ffffff"
           d="m 150,49.6 c -13.5,0 -26.7,2.7 -39.1,7.9 C 99,62.6 88.2,69.8 79,79 c -9.2,9.2 -16.5,20 -21.5,31.9 -5.2,12.4 -7.9,25.5 -7.9,39.1 0,13.5 2.7,26.7 7.9,39.1 5.1,12 12.3,22.7 21.5,31.9 9.2,9.2 20,16.5 31.9,21.5 12.4,5.2 25.5,7.9 39.1,7.9 13.5,0 26.7,-2.7 39.1,-7.9 12,-5.1 22.7,-12.3 31.9,-21.5 9.2,-9.2 16.5,-20 21.5,-31.9 5.2,-12.4 7.9,-25.5 7.9,-39.1 0,-13.5 -2.7,-26.7 -7.9,-39.1 C 237.4,99 230.2,88.2 221,79 211.8,69.8 201,62.5 189.1,57.5 176.7,52.3 163.5,49.6 150,49.6 Z M 61.4,150 c 0,-48.9 39.7,-88.6 88.6,-88.6 48.9,0 88.6,39.7 88.6,88.6 v 0 0 c 0,48.9 -39.7,88.6 -88.6,88.6 -48.9,0 -88.6,-39.7 -88.6,-88.6 z"
           id="path2613" />
      </g>
      <g
         id="g2621"
         transform="matrix(0.26458333,0,0,0.26458333,123.05486,97.096783)">
        <path
           style="fill:#ff0000"
           d="m 85.8,150 c 0,17.1 6.7,33.3 18.8,45.4 12.1,12.1 28.2,18.8 45.4,18.8 17.2,0 33.3,-6.7 45.4,-18.8 12.1,-12.1 18.8,-28.2 18.8,-45.4 0,-35.4 -28.8,-64.2 -64.2,-64.2 -35.4,0 -64.2,28.8 -64.2,64.2 z"
           id="path2617" />
        <path
           style="fill:#ffffff"
           d="m 150,79.9 c -9.5,0 -18.6,1.9 -27.3,5.5 -8.3,3.5 -15.8,8.6 -22.3,15 -6.4,6.4 -11.5,13.9 -15,22.3 -3.7,8.6 -5.5,17.8 -5.5,27.3 0,9.5 1.9,18.6 5.5,27.3 3.5,8.3 8.6,15.8 15,22.3 6.4,6.4 13.9,11.5 22.3,15 8.6,3.7 17.8,5.5 27.3,5.5 9.5,0 18.6,-1.9 27.3,-5.5 8.3,-3.5 15.8,-8.6 22.3,-15 6.5,-6.4 11.5,-13.9 15,-22.3 3.7,-8.6 5.5,-17.8 5.5,-27.3 0,-9.5 -1.9,-18.6 -5.5,-27.3 -3.5,-8.3 -8.6,-15.8 -15,-22.3 C 193.2,94 185.7,88.9 177.3,85.4 168.6,81.8 159.5,79.9 150,79.9 Z M 91.7,150 c 0,-32.2 26.1,-58.3 58.3,-58.3 32.2,0 58.3,26.1 58.3,58.3 v 0 0 c 0,32.2 -26.1,58.3 -58.3,58.3 -32.2,0 -58.3,-26.1 -58.3,-58.3 z"
           id="path2619" />
      </g>
      <g
         id="g2">
        <circle
           cx="173.31982"
           cy="116.74472"
           r="2.1960416"
           id="circle2623"
           style="stroke-width:0.264583" />
        <circle
           cx="137.03362"
           cy="137.52513"
           r="2.1960416"
           id="circle2625"
           style="stroke-width:0.264583" />
        <circle
           cx="159.01584"
           cy="144.36606"
           r="2.1960416"
           id="circle2627"
           style="stroke-width:0.264583" />
        <circle
           cx="183.04059"
           cy="136.9454"
           r="2.1960416"
           id="circle2629"
           style="stroke-width:0.264583" />
        <circle
           cx="172.61353"
           cy="160.3111"
           r="2.1960416"
           id="circle2629-9"
           style="stroke-width:0.264583" />
        <circle
           cx="153.2706"
           cy="124.29354"
           r="2.1960416"
           id="circle2629-8"
           style="stroke-width:0.264583" />
      </g>
    </g>
  </g>
</svg>
